<?xml version="1.0" encoding="utf-8"?>
<!-- Generator: Adobe Illustrator 28.0.0, SVG Export Plug-In . SVG Version: 6.00 Build 0)  -->
<svg version="1.1" id="Layer_1" xmlns="http://www.w3.org/2000/svg" xmlns:xlink="http://www.w3.org/1999/xlink" x="0px" y="0px"
	 viewBox="0 0 576 432" style="enable-background:new 0 0 576 432;" xml:space="preserve">
<style type="text/css">
	.st0{fill:#010101;}
	.st1{fill:none;}
	.st2{fill:none;stroke:#000000;stroke-width:2;stroke-miterlimit:10;}
</style>
<g id="Layer_1_1_">
	<path class="st0" d="M102.8,88.5c-25.9,0-47,21.1-47,47s21.1,47,47,47s47-21.1,47-47S128.8,88.5,102.8,88.5z M106.4,103
		c10.2,7.2,16.8,19.1,16.8,32.5c0,13.4-6.7,25.3-16.8,32.5V103z M99.2,167.6c-9.9-7.2-16.3-18.9-16.3-32.1
		c0-13.1,6.4-24.8,16.3-32.1V167.6z M63.1,135.5c0-19.9,14.7-36.5,33.8-39.3C84,104.6,75.6,119,75.6,135.5s8.6,31,21.3,39.3
		C77.7,171.9,63.1,155.5,63.1,135.5z M109.4,174.7c12.8-8.5,21.2-22.9,21.2-39.2c0-16.5-8.6-30.9-21.3-39.3
		c18.9,3.1,33.4,19.5,33.4,39.3C142.6,155.2,128.2,171.6,109.4,174.7z"/>
</g>
<g id="l">
	<path class="st0" d="M66.2,141.1v-9.3h2.2v7.3h3.6v2C72.1,141.1,66.2,141.1,66.2,141.1z"/>
</g>
<g id="firstA">
	<path class="st0" d="M93.2,141.1l-0.7-1.8h-3.6l-0.7,1.8h-2.4l3.9-9.3h2.2l3.9,9.3H93.2z M90.7,134.4l-1.2,3.1h2.3L90.7,134.4z"/>
</g>
<g id="r">
	<path class="st0" d="M115.5,141.2l-2.1-3.7h-0.8v3.7h-2.2v-9.4h3.6c0.4,0,0.9,0.1,1.3,0.2c0.4,0.1,0.8,0.3,1.2,0.4
		c0.4,0.2,0.6,0.5,0.8,0.9c0.2,0.4,0.3,0.8,0.3,1.3c0,0.6-0.2,1.2-0.5,1.6s-0.8,0.7-1.4,0.9l2.4,4.1H115.5z M115.4,134.7
		c0-0.2-0.1-0.4-0.2-0.5c-0.1-0.2-0.2-0.3-0.4-0.4c-0.2-0.1-0.3-0.1-0.4-0.2c-0.2,0-0.4,0-0.5,0h-1.2v2.2h1.1c0.2,0,0.4,0,0.5-0.1
		c0.2,0,0.4-0.1,0.5-0.2c0.2-0.1,0.3-0.2,0.4-0.4C115.4,135.1,115.4,134.9,115.4,134.7z"/>
</g>
<g id="secondA">
	<path class="st0" d="M138.8,141.1l-0.7-1.8h-3.6l-0.7,1.8h-2.4l3.9-9.3h2.2l3.9,9.3H138.8z M136.4,134.4l-1.2,3.1h2.3L136.4,134.4z
		"/>
</g>
<g>
	<path d="M174.3,141.6l0.1-7h0l-2.6,7H170l-2.5-7h0l0.1,7h-2.3v-9.9h3.4l2.3,6.4h0.1l2.2-6.4h3.5v9.9H174.3z"/>
	<path d="M186.2,141.6l-0.8-1.9h-3.8l-0.7,1.9h-2.6l4.2-9.9h2.3l4.1,9.9H186.2z M183.6,134.3l-1.3,3.4h2.5L183.6,134.3z"/>
	<path d="M196.6,141.6l-3.7-4.6h0v4.6h-2.3v-9.9h2.3v4h0l3.5-4h3l-4.3,4.6l4.5,5.3H196.6z"/>
	<path d="M201.4,141.6v-9.9h6.7v2h-4.4v1.9h4.1v1.9h-4.1v2.1h4.6v2H201.4z"/>
	<path d="M222.8,138.7c0,0.5-0.1,1-0.3,1.4c-0.2,0.4-0.5,0.7-0.9,0.9c-0.4,0.2-0.8,0.4-1.2,0.5s-0.9,0.1-1.4,0.1h-3.9v-9.9h3.9
		c0.4,0,0.8,0,1.2,0.1c0.4,0.1,0.8,0.2,1.1,0.4c0.3,0.2,0.6,0.5,0.8,0.8c0.2,0.3,0.3,0.7,0.3,1.2c0,0.6-0.1,1-0.4,1.4
		s-0.7,0.6-1.2,0.8v0c0.3,0,0.5,0.1,0.8,0.3c0.2,0.1,0.5,0.3,0.6,0.5c0.2,0.2,0.3,0.4,0.4,0.7C222.8,138.1,222.8,138.4,222.8,138.7z
		 M220.1,134.5c0-0.3-0.1-0.6-0.4-0.7c-0.3-0.2-0.6-0.2-1.1-0.2h-1.2v2h1.3c0.4,0,0.8-0.1,1-0.3C220,135.2,220.1,134.9,220.1,134.5z
		 M220.4,138.5c0-0.4-0.2-0.7-0.5-0.9s-0.7-0.2-1.2-0.2h-1.3v2.3h1.3c0.2,0,0.4,0,0.6,0s0.4-0.1,0.5-0.2c0.2-0.1,0.3-0.2,0.4-0.4
		C220.4,138.9,220.4,138.7,220.4,138.5z"/>
	<path d="M235.6,136.6c0,0.8-0.1,1.5-0.4,2.1c-0.3,0.6-0.6,1.2-1.1,1.7c-0.5,0.5-1.1,0.8-1.7,1.1s-1.4,0.4-2.2,0.4
		c-0.8,0-1.5-0.1-2.1-0.4c-0.7-0.3-1.2-0.6-1.7-1.1c-0.5-0.5-0.9-1-1.1-1.7c-0.3-0.6-0.4-1.4-0.4-2.1c0-0.8,0.1-1.5,0.4-2.1
		c0.3-0.6,0.6-1.2,1.1-1.6c0.5-0.4,1.1-0.8,1.7-1c0.7-0.2,1.4-0.4,2.1-0.4c0.8,0,1.5,0.1,2.2,0.4s1.2,0.6,1.7,1
		c0.5,0.4,0.9,1,1.1,1.6C235.4,135.1,235.6,135.8,235.6,136.6z M233,136.6c0-0.4-0.1-0.8-0.2-1.2c-0.1-0.4-0.3-0.7-0.6-1
		c-0.2-0.3-0.5-0.5-0.9-0.6s-0.7-0.2-1.2-0.2c-0.4,0-0.8,0.1-1.1,0.2s-0.6,0.4-0.9,0.6c-0.3,0.3-0.4,0.6-0.6,1
		c-0.1,0.4-0.2,0.8-0.2,1.2c0,0.4,0.1,0.9,0.2,1.2c0.1,0.4,0.3,0.7,0.6,1c0.2,0.3,0.5,0.5,0.9,0.6c0.3,0.2,0.7,0.2,1.1,0.2
		c0.4,0,0.8-0.1,1.1-0.2c0.3-0.2,0.6-0.4,0.9-0.6c0.3-0.3,0.4-0.6,0.6-1C232.9,137.4,233,137,233,136.6z"/>
	<path d="M248.3,136.6c0,0.8-0.1,1.5-0.4,2.1c-0.3,0.6-0.6,1.2-1.1,1.7c-0.5,0.5-1.1,0.8-1.7,1.1s-1.4,0.4-2.2,0.4
		c-0.8,0-1.5-0.1-2.1-0.4c-0.7-0.3-1.2-0.6-1.7-1.1c-0.5-0.5-0.9-1-1.1-1.7c-0.3-0.6-0.4-1.4-0.4-2.1c0-0.8,0.1-1.5,0.4-2.1
		c0.3-0.6,0.6-1.2,1.1-1.6c0.5-0.4,1.1-0.8,1.7-1c0.7-0.2,1.4-0.4,2.1-0.4c0.8,0,1.5,0.1,2.2,0.4s1.2,0.6,1.7,1
		c0.5,0.4,0.9,1,1.1,1.6C248.2,135.1,248.3,135.8,248.3,136.6z M245.8,136.6c0-0.4-0.1-0.8-0.2-1.2c-0.1-0.4-0.3-0.7-0.6-1
		c-0.2-0.3-0.5-0.5-0.9-0.6s-0.7-0.2-1.2-0.2c-0.4,0-0.8,0.1-1.1,0.2s-0.6,0.4-0.9,0.6c-0.3,0.3-0.4,0.6-0.6,1
		c-0.1,0.4-0.2,0.8-0.2,1.2c0,0.4,0.1,0.9,0.2,1.2c0.1,0.4,0.3,0.7,0.6,1c0.2,0.3,0.5,0.5,0.9,0.6c0.3,0.2,0.7,0.2,1.1,0.2
		c0.4,0,0.8-0.1,1.1-0.2c0.3-0.2,0.6-0.4,0.9-0.6c0.3-0.3,0.4-0.6,0.6-1C245.7,137.4,245.8,137,245.8,136.6z"/>
	<path d="M256.8,141.6l-3.7-4.6h0v4.6h-2.3v-9.9h2.3v4h0l3.5-4h3l-4.3,4.6l4.5,5.3H256.8z"/>
	<path d="M266.8,134.2c-0.2-0.3-0.5-0.5-0.8-0.6c-0.3-0.2-0.7-0.2-1-0.2c-0.2,0-0.3,0-0.5,0c-0.2,0-0.3,0.1-0.4,0.2
		c-0.1,0.1-0.2,0.2-0.3,0.3c-0.1,0.1-0.1,0.3-0.1,0.5c0,0.2,0,0.3,0.1,0.4c0.1,0.1,0.2,0.2,0.3,0.3s0.3,0.2,0.5,0.2s0.4,0.1,0.6,0.2
		c0.3,0.1,0.7,0.2,1.1,0.4c0.4,0.1,0.7,0.3,1,0.5c0.3,0.2,0.5,0.5,0.7,0.8c0.2,0.3,0.3,0.7,0.3,1.2c0,0.6-0.1,1.1-0.3,1.5
		c-0.2,0.4-0.5,0.8-0.8,1c-0.4,0.3-0.8,0.5-1.2,0.6c-0.5,0.1-0.9,0.2-1.4,0.2c-0.7,0-1.4-0.1-2.1-0.4c-0.7-0.2-1.2-0.6-1.7-1.1
		l1.6-1.6c0.2,0.3,0.6,0.5,1,0.7c0.4,0.2,0.8,0.3,1.2,0.3c0.2,0,0.4,0,0.5-0.1c0.2,0,0.3-0.1,0.4-0.2s0.2-0.2,0.3-0.3
		c0.1-0.1,0.1-0.3,0.1-0.5c0-0.2,0-0.3-0.1-0.5s-0.2-0.2-0.4-0.4s-0.4-0.2-0.6-0.3c-0.3-0.1-0.5-0.2-0.9-0.3
		c-0.3-0.1-0.6-0.2-0.9-0.4c-0.3-0.1-0.6-0.3-0.8-0.5c-0.2-0.2-0.4-0.5-0.6-0.8c-0.1-0.3-0.2-0.7-0.2-1.1c0-0.6,0.1-1,0.3-1.4
		c0.2-0.4,0.5-0.7,0.9-1c0.4-0.3,0.8-0.4,1.2-0.6s0.9-0.2,1.4-0.2c0.6,0,1.1,0.1,1.7,0.3c0.6,0.2,1.1,0.5,1.5,0.9L266.8,134.2z"/>
	<path d="M166.4,156h-1.1v-9.1h1.1V156z"/>
	<path d="M172.1,152.3c0-0.4-0.1-0.7-0.4-0.9s-0.6-0.3-1-0.3c-0.3,0-0.6,0.1-0.9,0.2c-0.3,0.1-0.5,0.3-0.7,0.5l-0.6-0.7
		c0.3-0.3,0.6-0.5,1-0.6c0.4-0.2,0.8-0.2,1.3-0.2c0.4,0,0.8,0.1,1.1,0.2c0.3,0.1,0.5,0.3,0.7,0.5c0.2,0.2,0.3,0.4,0.4,0.7
		c0.1,0.3,0.1,0.6,0.1,0.9v2.5c0,0.2,0,0.4,0,0.6c0,0.2,0,0.4,0.1,0.5h-1c-0.1-0.3-0.1-0.5-0.1-0.8h0c-0.2,0.3-0.5,0.5-0.8,0.7
		s-0.7,0.3-1.1,0.3c-0.2,0-0.5,0-0.7-0.1c-0.2-0.1-0.5-0.2-0.7-0.3c-0.2-0.1-0.4-0.3-0.5-0.5c-0.1-0.2-0.2-0.5-0.2-0.8
		c0-0.4,0.1-0.8,0.3-1c0.2-0.3,0.5-0.4,0.9-0.6s0.8-0.2,1.3-0.3s0.9-0.1,1.4-0.1V152.3z M171.8,153.3c-0.3,0-0.6,0-0.9,0
		c-0.3,0-0.6,0.1-0.8,0.1c-0.2,0.1-0.4,0.2-0.6,0.3s-0.2,0.3-0.2,0.6c0,0.2,0,0.3,0.1,0.4c0.1,0.1,0.2,0.2,0.3,0.3
		c0.1,0.1,0.2,0.1,0.4,0.1c0.1,0,0.3,0,0.4,0c0.5,0,0.9-0.2,1.2-0.5c0.3-0.3,0.4-0.7,0.4-1.2v-0.3H171.8z"/>
	<path d="M175.3,150.9c0-0.2,0-0.5,0-0.6h1.1c0,0.1,0,0.3,0,0.5s0,0.3,0,0.5h0c0.2-0.3,0.4-0.6,0.7-0.8s0.7-0.3,1-0.3
		c0.2,0,0.3,0,0.4,0l0,1c-0.2,0-0.3-0.1-0.5-0.1c-0.3,0-0.5,0.1-0.7,0.1c-0.2,0.1-0.4,0.2-0.5,0.4c-0.1,0.2-0.2,0.4-0.3,0.6
		c-0.1,0.2-0.1,0.5-0.1,0.7v3h-1.1v-4.5C175.3,151.4,175.3,151.2,175.3,150.9z"/>
	<path d="M183.2,152.3c0-0.4-0.1-0.7-0.4-0.9s-0.6-0.3-1-0.3c-0.3,0-0.6,0.1-0.9,0.2c-0.3,0.1-0.5,0.3-0.7,0.5l-0.6-0.7
		c0.3-0.3,0.6-0.5,1-0.6c0.4-0.2,0.8-0.2,1.3-0.2c0.4,0,0.8,0.1,1.1,0.2c0.3,0.1,0.5,0.3,0.7,0.5c0.2,0.2,0.3,0.4,0.4,0.7
		c0.1,0.3,0.1,0.6,0.1,0.9v2.5c0,0.2,0,0.4,0,0.6c0,0.2,0,0.4,0.1,0.5h-1c-0.1-0.3-0.1-0.5-0.1-0.8h0c-0.2,0.3-0.5,0.5-0.8,0.7
		s-0.7,0.3-1.1,0.3c-0.2,0-0.5,0-0.7-0.1c-0.2-0.1-0.5-0.2-0.7-0.3c-0.2-0.1-0.4-0.3-0.5-0.5c-0.1-0.2-0.2-0.5-0.2-0.8
		c0-0.4,0.1-0.8,0.3-1c0.2-0.3,0.5-0.4,0.9-0.6s0.8-0.2,1.3-0.3s0.9-0.1,1.4-0.1V152.3z M182.9,153.3c-0.3,0-0.6,0-0.9,0
		c-0.3,0-0.6,0.1-0.8,0.1c-0.2,0.1-0.4,0.2-0.6,0.3s-0.2,0.3-0.2,0.6c0,0.2,0,0.3,0.1,0.4c0.1,0.1,0.2,0.2,0.3,0.3
		c0.1,0.1,0.2,0.1,0.4,0.1c0.1,0,0.3,0,0.4,0c0.5,0,0.9-0.2,1.2-0.5c0.3-0.3,0.4-0.7,0.4-1.2v-0.3H182.9z"/>
	<path d="M187.5,151.2c0.1-0.3,0.4-0.5,0.7-0.7c0.3-0.2,0.7-0.3,1.1-0.3c0.4,0,0.7,0.1,0.9,0.2c0.3,0.1,0.5,0.3,0.7,0.5
		c0.2,0.2,0.3,0.5,0.4,0.7c0.1,0.3,0.1,0.6,0.1,0.9v3.5h-1.1v-3.2c0-0.2,0-0.5-0.1-0.7c0-0.2-0.1-0.4-0.2-0.6
		c-0.1-0.2-0.2-0.3-0.4-0.4s-0.4-0.1-0.6-0.1c-0.4,0-0.8,0.2-1.1,0.5s-0.4,0.8-0.4,1.4v3h-1.1v-9.1h1.1L187.5,151.2L187.5,151.2z"/>
	<path d="M198.9,153.1c0,0.1,0,0.1,0,0.2c0,0.1,0,0.1,0,0.2h-4.5c0,0.2,0.1,0.5,0.2,0.7s0.2,0.4,0.4,0.5c0.2,0.2,0.4,0.3,0.6,0.4
		s0.5,0.1,0.7,0.1c0.4,0,0.7-0.1,1-0.3c0.3-0.2,0.5-0.4,0.7-0.6l0.8,0.6c-0.3,0.4-0.7,0.7-1.1,0.9c-0.4,0.2-0.9,0.3-1.4,0.3
		c-0.4,0-0.8-0.1-1.2-0.2s-0.7-0.3-0.9-0.6c-0.3-0.3-0.5-0.6-0.6-0.9c-0.2-0.4-0.2-0.8-0.2-1.2c0-0.4,0.1-0.8,0.2-1.2
		c0.1-0.4,0.4-0.7,0.6-1c0.3-0.3,0.6-0.5,0.9-0.6c0.4-0.1,0.7-0.2,1.2-0.2c0.4,0,0.8,0.1,1.1,0.2c0.3,0.1,0.6,0.3,0.9,0.6
		c0.2,0.3,0.4,0.6,0.5,0.9C198.8,152.2,198.9,152.6,198.9,153.1z M197.7,152.6c0-0.2,0-0.4-0.1-0.6c-0.1-0.2-0.2-0.4-0.3-0.5
		c-0.1-0.1-0.3-0.3-0.5-0.3c-0.2-0.1-0.4-0.1-0.7-0.1c-0.2,0-0.5,0-0.7,0.1s-0.4,0.2-0.6,0.3c-0.2,0.1-0.3,0.3-0.4,0.5
		c-0.1,0.2-0.2,0.4-0.2,0.6H197.7z"/>
	<path d="M201.7,150.3c0,0.1,0,0.3,0,0.5c0,0.2,0,0.3,0,0.5h0c0.1-0.2,0.2-0.3,0.3-0.4c0.1-0.1,0.3-0.2,0.4-0.3s0.3-0.2,0.5-0.2
		c0.2-0.1,0.4-0.1,0.6-0.1c0.4,0,0.7,0.1,0.9,0.2c0.3,0.1,0.5,0.3,0.7,0.5c0.2,0.2,0.3,0.5,0.4,0.7c0.1,0.3,0.1,0.6,0.1,0.9v3.5
		h-1.1v-3.2c0-0.2,0-0.5-0.1-0.7c0-0.2-0.1-0.4-0.2-0.6c-0.1-0.2-0.2-0.3-0.4-0.4s-0.4-0.1-0.6-0.1c-0.4,0-0.8,0.2-1.1,0.5
		c-0.3,0.3-0.4,0.8-0.4,1.4v3h-1.1v-4.5c0-0.2,0-0.3,0-0.6c0-0.2,0-0.5,0-0.6H201.7z"/>
	<path d="M212.4,155.1c-0.2,0.3-0.5,0.6-0.9,0.8c-0.4,0.2-0.8,0.3-1.2,0.3c-0.4,0-0.8-0.1-1.2-0.2c-0.4-0.2-0.7-0.4-0.9-0.6
		c-0.2-0.3-0.4-0.6-0.6-1c-0.1-0.4-0.2-0.8-0.2-1.2s0.1-0.8,0.2-1.2c0.1-0.4,0.3-0.7,0.6-1s0.6-0.5,0.9-0.6c0.4-0.2,0.7-0.2,1.2-0.2
		c0.5,0,0.9,0.1,1.2,0.3c0.3,0.2,0.6,0.4,0.8,0.7h0v-4.2h1.1v9.1h-1.1L212.4,155.1L212.4,155.1z M208.6,153.1c0,0.3,0,0.5,0.1,0.8
		c0.1,0.2,0.2,0.5,0.4,0.7c0.2,0.2,0.4,0.3,0.6,0.5s0.5,0.2,0.8,0.2c0.3,0,0.5-0.1,0.8-0.2c0.2-0.1,0.4-0.3,0.6-0.4s0.3-0.4,0.4-0.7
		c0.1-0.2,0.1-0.5,0.1-0.8s0-0.5-0.1-0.8c-0.1-0.2-0.2-0.5-0.4-0.7c-0.2-0.2-0.4-0.3-0.6-0.5c-0.2-0.1-0.5-0.2-0.8-0.2
		c-0.3,0-0.6,0.1-0.8,0.2s-0.4,0.3-0.6,0.5c-0.2,0.2-0.3,0.4-0.4,0.7S208.6,152.9,208.6,153.1z"/>
	<path d="M221,153.1c0,0.1,0,0.1,0,0.2c0,0.1,0,0.1,0,0.2h-4.5c0,0.2,0.1,0.5,0.2,0.7s0.2,0.4,0.4,0.5c0.2,0.2,0.4,0.3,0.6,0.4
		s0.5,0.1,0.7,0.1c0.4,0,0.7-0.1,1-0.3c0.3-0.2,0.5-0.4,0.7-0.6l0.8,0.6c-0.3,0.4-0.7,0.7-1.1,0.9c-0.4,0.2-0.9,0.3-1.4,0.3
		c-0.4,0-0.8-0.1-1.2-0.2s-0.7-0.3-0.9-0.6c-0.3-0.3-0.5-0.6-0.6-0.9c-0.2-0.4-0.2-0.8-0.2-1.2c0-0.4,0.1-0.8,0.2-1.2
		c0.1-0.4,0.4-0.7,0.6-1c0.3-0.3,0.6-0.5,0.9-0.6c0.4-0.1,0.7-0.2,1.2-0.2c0.4,0,0.8,0.1,1.1,0.2c0.3,0.1,0.6,0.3,0.9,0.6
		c0.2,0.3,0.4,0.6,0.5,0.9C220.9,152.2,221,152.6,221,153.1z M219.8,152.6c0-0.2,0-0.4-0.1-0.6c-0.1-0.2-0.2-0.4-0.3-0.5
		c-0.1-0.1-0.3-0.3-0.5-0.3c-0.2-0.1-0.4-0.1-0.7-0.1c-0.2,0-0.5,0-0.7,0.1s-0.4,0.2-0.6,0.3c-0.2,0.1-0.3,0.3-0.4,0.5
		c-0.1,0.2-0.2,0.4-0.2,0.6H219.8z"/>
	<path d="M222.7,150.9c0-0.2,0-0.5,0-0.6h1.1c0,0.1,0,0.3,0,0.5s0,0.3,0,0.5h0c0.2-0.3,0.4-0.6,0.7-0.8s0.7-0.3,1-0.3
		c0.2,0,0.3,0,0.4,0l0,1c-0.2,0-0.3-0.1-0.5-0.1c-0.3,0-0.5,0.1-0.7,0.1c-0.2,0.1-0.4,0.2-0.5,0.4c-0.1,0.2-0.2,0.4-0.3,0.6
		c-0.1,0.2-0.1,0.5-0.1,0.7v3h-1.1v-4.5C222.7,151.4,222.7,151.2,222.7,150.9z"/>
	<path d="M230.4,151.7c-0.1-0.2-0.3-0.4-0.5-0.5c-0.2-0.1-0.5-0.2-0.8-0.2c-0.1,0-0.3,0-0.4,0c-0.1,0-0.2,0.1-0.3,0.1
		c-0.1,0.1-0.2,0.1-0.2,0.2c-0.1,0.1-0.1,0.2-0.1,0.3c0,0.2,0.1,0.4,0.3,0.5c0.2,0.1,0.5,0.2,1,0.3c0.3,0.1,0.5,0.1,0.8,0.2
		c0.2,0.1,0.4,0.2,0.6,0.3c0.2,0.1,0.3,0.3,0.4,0.5c0.1,0.2,0.1,0.4,0.1,0.6c0,0.3-0.1,0.6-0.2,0.9c-0.1,0.2-0.3,0.4-0.5,0.6
		s-0.5,0.3-0.7,0.3s-0.6,0.1-0.8,0.1c-0.4,0-0.9-0.1-1.3-0.3s-0.8-0.4-1-0.8l0.8-0.7c0.2,0.2,0.4,0.4,0.6,0.6s0.6,0.2,0.9,0.2
		c0.1,0,0.3,0,0.4,0c0.1,0,0.3-0.1,0.4-0.1s0.2-0.1,0.3-0.3c0.1-0.1,0.1-0.2,0.1-0.4c0-0.3-0.1-0.5-0.4-0.6s-0.6-0.2-1.1-0.4
		c-0.2,0-0.4-0.1-0.6-0.2c-0.2-0.1-0.4-0.2-0.5-0.3c-0.2-0.1-0.3-0.3-0.4-0.5c-0.1-0.2-0.2-0.4-0.2-0.7c0-0.3,0.1-0.6,0.2-0.8
		c0.1-0.2,0.3-0.4,0.5-0.5c0.2-0.1,0.4-0.2,0.7-0.3c0.3-0.1,0.5-0.1,0.8-0.1c0.4,0,0.8,0.1,1.2,0.2s0.7,0.4,0.9,0.7L230.4,151.7z"/>
	<path d="M238.6,153.1c0,0.4-0.1,0.8-0.2,1.2c-0.2,0.4-0.4,0.7-0.6,1s-0.6,0.5-1,0.6s-0.8,0.2-1.2,0.2c-0.4,0-0.8-0.1-1.2-0.2
		c-0.4-0.1-0.7-0.4-1-0.6s-0.5-0.6-0.6-1c-0.2-0.4-0.2-0.8-0.2-1.2s0.1-0.8,0.2-1.2c0.2-0.4,0.4-0.7,0.6-0.9c0.3-0.3,0.6-0.5,1-0.6
		c0.4-0.1,0.8-0.2,1.2-0.2c0.4,0,0.8,0.1,1.2,0.2c0.4,0.1,0.7,0.4,1,0.6c0.3,0.3,0.5,0.6,0.6,0.9
		C238.5,152.3,238.6,152.7,238.6,153.1z M237.4,153.1c0-0.3,0-0.5-0.1-0.8c-0.1-0.2-0.2-0.5-0.4-0.7s-0.4-0.3-0.6-0.4
		c-0.2-0.1-0.5-0.2-0.8-0.2c-0.3,0-0.6,0.1-0.8,0.2s-0.4,0.3-0.6,0.4c-0.2,0.2-0.3,0.4-0.4,0.7c-0.1,0.2-0.1,0.5-0.1,0.8
		c0,0.3,0,0.5,0.1,0.8c0.1,0.2,0.2,0.5,0.4,0.7c0.2,0.2,0.4,0.3,0.6,0.5s0.5,0.2,0.8,0.2c0.3,0,0.6-0.1,0.8-0.2
		c0.2-0.1,0.4-0.3,0.6-0.5s0.3-0.4,0.4-0.7C237.4,153.7,237.4,153.4,237.4,153.1z"/>
	<path d="M241.4,150.3c0,0.1,0,0.3,0,0.5c0,0.2,0,0.3,0,0.5h0c0.1-0.2,0.2-0.3,0.3-0.4c0.1-0.1,0.3-0.2,0.4-0.3s0.3-0.2,0.5-0.2
		c0.2-0.1,0.4-0.1,0.6-0.1c0.4,0,0.7,0.1,0.9,0.2c0.3,0.1,0.5,0.3,0.7,0.5c0.2,0.2,0.3,0.5,0.4,0.7c0.1,0.3,0.1,0.6,0.1,0.9v3.5
		h-1.1v-3.2c0-0.2,0-0.5-0.1-0.7c0-0.2-0.1-0.4-0.2-0.6c-0.1-0.2-0.2-0.3-0.4-0.4s-0.4-0.1-0.6-0.1c-0.4,0-0.8,0.2-1.1,0.5
		c-0.3,0.3-0.4,0.8-0.4,1.4v3h-1.1v-4.5c0-0.2,0-0.3,0-0.6c0-0.2,0-0.5,0-0.6H241.4z"/>
	<path d="M248.9,155.3c0,0.2-0.1,0.4-0.2,0.6c-0.2,0.2-0.3,0.2-0.6,0.2c-0.2,0-0.4-0.1-0.6-0.2c-0.2-0.2-0.2-0.3-0.2-0.5
		c0-0.2,0.1-0.4,0.2-0.6c0.2-0.2,0.3-0.2,0.6-0.2c0.2,0,0.4,0.1,0.6,0.2C248.9,154.9,248.9,155,248.9,155.3z"/>
	<path d="M254.8,151.7c-0.1-0.2-0.3-0.3-0.5-0.5c-0.2-0.1-0.5-0.2-0.8-0.2c-0.3,0-0.6,0.1-0.8,0.2c-0.2,0.1-0.4,0.3-0.6,0.5
		c-0.2,0.2-0.3,0.4-0.4,0.7s-0.1,0.5-0.1,0.8c0,0.3,0,0.5,0.1,0.8s0.2,0.5,0.4,0.7c0.2,0.2,0.4,0.3,0.6,0.5c0.2,0.1,0.5,0.2,0.8,0.2
		c0.3,0,0.5-0.1,0.8-0.2c0.2-0.1,0.4-0.3,0.6-0.5l0.8,0.7c-0.2,0.3-0.5,0.5-0.9,0.7c-0.4,0.2-0.8,0.2-1.2,0.2
		c-0.4,0-0.8-0.1-1.2-0.2s-0.7-0.3-1-0.6c-0.3-0.3-0.5-0.6-0.6-0.9c-0.2-0.4-0.2-0.8-0.2-1.2c0-0.4,0.1-0.9,0.2-1.2
		c0.2-0.4,0.4-0.7,0.6-0.9c0.3-0.3,0.6-0.5,1-0.6c0.4-0.1,0.8-0.2,1.2-0.2c0.4,0,0.8,0.1,1.2,0.2s0.7,0.4,0.9,0.7L254.8,151.7z"/>
	<path d="M262.8,153.1c0,0.4-0.1,0.8-0.2,1.2c-0.2,0.4-0.4,0.7-0.6,1s-0.6,0.5-1,0.6s-0.8,0.2-1.2,0.2c-0.4,0-0.8-0.1-1.2-0.2
		c-0.4-0.1-0.7-0.4-1-0.6s-0.5-0.6-0.6-1c-0.2-0.4-0.2-0.8-0.2-1.2s0.1-0.8,0.2-1.2c0.2-0.4,0.4-0.7,0.6-0.9c0.3-0.3,0.6-0.5,1-0.6
		c0.4-0.1,0.8-0.2,1.2-0.2c0.4,0,0.8,0.1,1.2,0.2c0.4,0.1,0.7,0.4,1,0.6c0.3,0.3,0.5,0.6,0.6,0.9
		C262.7,152.3,262.8,152.7,262.8,153.1z M261.6,153.1c0-0.3,0-0.5-0.1-0.8c-0.1-0.2-0.2-0.5-0.4-0.7s-0.4-0.3-0.6-0.4
		c-0.2-0.1-0.5-0.2-0.8-0.2c-0.3,0-0.6,0.1-0.8,0.2s-0.4,0.3-0.6,0.4c-0.2,0.2-0.3,0.4-0.4,0.7c-0.1,0.2-0.1,0.5-0.1,0.8
		c0,0.3,0,0.5,0.1,0.8c0.1,0.2,0.2,0.5,0.4,0.7c0.2,0.2,0.4,0.3,0.6,0.5s0.5,0.2,0.8,0.2c0.3,0,0.6-0.1,0.8-0.2
		c0.2-0.1,0.4-0.3,0.6-0.5s0.3-0.4,0.4-0.7C261.5,153.7,261.6,153.4,261.6,153.1z"/>
	<path d="M266.3,150.5c0.3-0.2,0.7-0.3,1.1-0.3c0.4,0,0.7,0.1,1,0.3c0.3,0.2,0.6,0.5,0.7,0.9c0.2-0.4,0.5-0.6,0.8-0.8
		c0.3-0.2,0.7-0.3,1.1-0.3c0.4,0,0.7,0.1,0.9,0.2c0.3,0.1,0.5,0.3,0.7,0.5c0.2,0.2,0.3,0.5,0.4,0.7c0.1,0.3,0.1,0.6,0.1,0.9v3.5
		h-1.1v-3.2c0-0.2,0-0.5-0.1-0.7s-0.1-0.4-0.2-0.6c-0.1-0.2-0.2-0.3-0.4-0.4c-0.2-0.1-0.4-0.1-0.6-0.1c-0.3,0-0.5,0.1-0.7,0.2
		c-0.2,0.1-0.3,0.2-0.5,0.4c-0.1,0.2-0.2,0.4-0.3,0.6c-0.1,0.2-0.1,0.4-0.1,0.7v3.1h-1.1v-3.4c0-0.2,0-0.4-0.1-0.6s-0.1-0.3-0.2-0.5
		c-0.1-0.1-0.2-0.2-0.4-0.3c-0.2-0.1-0.3-0.1-0.6-0.1c-0.4,0-0.8,0.2-1,0.5c-0.3,0.3-0.4,0.8-0.4,1.4v3h-1.1v-4.5c0-0.2,0-0.3,0-0.6
		c0-0.2,0-0.5,0-0.6h1.1c0,0.1,0,0.3,0,0.5c0,0.2,0,0.3,0,0.5h0C265.8,150.9,266,150.7,266.3,150.5z"/>
</g>
<g id="Layer_1_00000172400357377481418130000005704867433338195084_">
	<path class="st0" d="M102.8,235.5c-25.9,0-47,21.1-47,47c0,25.9,21.1,47,47,47s47-21.1,47-47C149.8,256.6,128.8,235.5,102.8,235.5z
		 M106.4,250c10.2,7.2,16.8,19.1,16.8,32.5c0,13.4-6.7,25.3-16.8,32.5V250z M99.2,314.6c-9.9-7.2-16.3-18.9-16.3-32.1
		c0-13.1,6.4-24.8,16.3-32.1V314.6z M63.1,282.5c0-19.9,14.7-36.5,33.8-39.3C84,251.6,75.6,266,75.6,282.5s8.6,31,21.3,39.3
		C77.7,318.9,63.1,302.5,63.1,282.5z M109.4,321.7c12.8-8.5,21.2-22.9,21.2-39.2c0-16.5-8.6-30.9-21.3-39.3
		c18.9,3.1,33.4,19.5,33.4,39.3C142.6,302.2,128.2,318.6,109.4,321.7z"/>
</g>
<g id="l_00000157294977209806174590000016247721963269843852_">
	<path class="st0" d="M66.2,288.1v-9.3h2.2v7.3h3.6v2C72.1,288.1,66.2,288.1,66.2,288.1z"/>
</g>
<g id="firstA_00000155849386725503165870000018261977701932119213_">
	<path class="st0" d="M93.2,288.1l-0.7-1.8h-3.6l-0.7,1.8h-2.4l3.9-9.3h2.2l3.9,9.3H93.2z M90.7,281.4l-1.2,3.2h2.3L90.7,281.4z"/>
</g>
<g id="r_00000090978865882890217080000017808476323060805511_">
	<path class="st0" d="M115.5,288.2l-2.1-3.7h-0.8v3.7h-2.2v-9.5h3.6c0.4,0,0.9,0.1,1.3,0.2c0.4,0.1,0.8,0.3,1.2,0.5s0.6,0.5,0.8,0.9
		c0.2,0.4,0.3,0.8,0.3,1.4c0,0.6-0.2,1.2-0.5,1.6s-0.8,0.7-1.4,0.9l2.4,4.1H115.5z M115.4,281.7c0-0.2-0.1-0.4-0.2-0.5
		s-0.2-0.3-0.4-0.4c-0.2-0.1-0.3-0.1-0.4-0.2c-0.2,0-0.4,0-0.5,0h-1.2v2.2h1.1c0.2,0,0.4,0,0.5-0.1c0.2,0,0.4-0.1,0.5-0.2
		c0.2-0.1,0.3-0.2,0.4-0.4C115.4,282.1,115.4,281.9,115.4,281.7z"/>
</g>
<g id="secondA_00000057860322173200607560000016873202237657651642_">
	<path class="st0" d="M138.8,288.1l-0.7-1.8h-3.6l-0.7,1.8h-2.4l3.9-9.3h2.2l3.9,9.3H138.8z M136.4,281.4l-1.2,3.2h2.3L136.4,281.4z
		"/>
</g>
<g>
	<path d="M174.3,288.6l0.1-7h0l-2.6,7H170l-2.5-7h0l0.1,7h-2.3v-9.9h3.4l2.3,6.4h0.1l2.2-6.4h3.5v9.9H174.3z"/>
	<path d="M186.2,288.6l-0.8-1.9h-3.8l-0.7,1.9h-2.6l4.2-9.9h2.3l4.1,9.9H186.2z M183.6,281.3l-1.3,3.4h2.5L183.6,281.3z"/>
	<path d="M196.6,288.6l-3.7-4.6h0v4.6h-2.3v-9.9h2.3v4h0l3.5-4h3l-4.3,4.6l4.5,5.3H196.6z"/>
	<path d="M201.4,288.6v-9.9h6.7v2h-4.4v1.9h4.1v1.9h-4.1v2.1h4.6v2H201.4z"/>
	<path d="M222.8,285.7c0,0.5-0.1,1-0.3,1.4c-0.2,0.4-0.5,0.7-0.9,0.9c-0.4,0.2-0.8,0.4-1.2,0.5c-0.5,0.1-0.9,0.1-1.4,0.1h-3.9v-9.9
		h3.9c0.4,0,0.8,0,1.2,0.1c0.4,0.1,0.8,0.2,1.1,0.4s0.6,0.5,0.8,0.8c0.2,0.3,0.3,0.7,0.3,1.2c0,0.6-0.1,1-0.4,1.4s-0.7,0.6-1.2,0.8
		v0c0.3,0,0.5,0.1,0.8,0.3c0.2,0.1,0.5,0.3,0.6,0.5c0.2,0.2,0.3,0.4,0.4,0.7S222.8,285.4,222.8,285.7z M220.1,281.5
		c0-0.3-0.1-0.6-0.4-0.7s-0.6-0.2-1.1-0.2h-1.2v2h1.3c0.4,0,0.8-0.1,1-0.3C220,282.2,220.1,281.9,220.1,281.5z M220.4,285.5
		c0-0.4-0.2-0.7-0.5-0.9s-0.7-0.2-1.2-0.2h-1.3v2.3h1.3c0.2,0,0.4,0,0.6,0c0.2,0,0.4-0.1,0.5-0.2c0.2-0.1,0.3-0.2,0.4-0.4
		C220.4,285.9,220.4,285.7,220.4,285.5z"/>
	<path d="M235.6,283.6c0,0.8-0.1,1.5-0.4,2.1c-0.3,0.6-0.6,1.2-1.1,1.7c-0.5,0.5-1.1,0.8-1.7,1.1s-1.4,0.4-2.2,0.4
		c-0.8,0-1.5-0.1-2.1-0.4c-0.7-0.3-1.2-0.6-1.7-1.1c-0.5-0.5-0.9-1-1.1-1.7c-0.3-0.6-0.4-1.4-0.4-2.1c0-0.8,0.1-1.5,0.4-2.1
		c0.3-0.6,0.6-1.2,1.1-1.6c0.5-0.4,1.1-0.8,1.7-1c0.7-0.2,1.4-0.4,2.1-0.4c0.8,0,1.5,0.1,2.2,0.4c0.7,0.2,1.2,0.6,1.7,1
		c0.5,0.4,0.9,1,1.1,1.6C235.4,282.1,235.6,282.8,235.6,283.6z M233,283.6c0-0.4-0.1-0.8-0.2-1.2c-0.1-0.4-0.3-0.7-0.6-1
		c-0.2-0.3-0.5-0.5-0.9-0.6s-0.7-0.2-1.2-0.2c-0.4,0-0.8,0.1-1.1,0.2s-0.6,0.4-0.9,0.6c-0.3,0.3-0.4,0.6-0.6,1
		c-0.1,0.4-0.2,0.8-0.2,1.2c0,0.4,0.1,0.9,0.2,1.2s0.3,0.7,0.6,1c0.2,0.3,0.5,0.5,0.9,0.6c0.3,0.2,0.7,0.2,1.1,0.2
		c0.4,0,0.8-0.1,1.1-0.2c0.3-0.2,0.6-0.4,0.9-0.6s0.4-0.6,0.6-1S233,284,233,283.6z"/>
	<path d="M248.3,283.6c0,0.8-0.1,1.5-0.4,2.1c-0.3,0.6-0.6,1.2-1.1,1.7c-0.5,0.5-1.1,0.8-1.7,1.1s-1.4,0.4-2.2,0.4
		c-0.8,0-1.5-0.1-2.1-0.4c-0.7-0.3-1.2-0.6-1.7-1.1c-0.5-0.5-0.9-1-1.1-1.7c-0.3-0.6-0.4-1.4-0.4-2.1c0-0.8,0.1-1.5,0.4-2.1
		c0.3-0.6,0.6-1.2,1.1-1.6c0.5-0.4,1.1-0.8,1.7-1c0.7-0.2,1.4-0.4,2.1-0.4c0.8,0,1.5,0.1,2.2,0.4c0.7,0.2,1.2,0.6,1.7,1
		c0.5,0.4,0.9,1,1.1,1.6C248.2,282.1,248.3,282.8,248.3,283.6z M245.8,283.6c0-0.4-0.1-0.8-0.2-1.2c-0.1-0.4-0.3-0.7-0.6-1
		c-0.2-0.3-0.5-0.5-0.9-0.6s-0.7-0.2-1.2-0.2c-0.4,0-0.8,0.1-1.1,0.2s-0.6,0.4-0.9,0.6c-0.3,0.3-0.4,0.6-0.6,1
		c-0.1,0.4-0.2,0.8-0.2,1.2c0,0.4,0.1,0.9,0.2,1.2s0.3,0.7,0.6,1c0.2,0.3,0.5,0.5,0.9,0.6c0.3,0.2,0.7,0.2,1.1,0.2
		c0.4,0,0.8-0.1,1.1-0.2c0.3-0.2,0.6-0.4,0.9-0.6s0.4-0.6,0.6-1S245.8,284,245.8,283.6z"/>
	<path d="M256.8,288.6l-3.7-4.6h0v4.6h-2.3v-9.9h2.3v4h0l3.5-4h3l-4.3,4.6l4.5,5.3H256.8z"/>
	<path d="M266.8,281.2c-0.2-0.3-0.5-0.5-0.8-0.6c-0.3-0.2-0.7-0.2-1-0.2c-0.2,0-0.3,0-0.5,0c-0.2,0-0.3,0.1-0.4,0.2
		c-0.1,0.1-0.2,0.2-0.3,0.3c-0.1,0.1-0.1,0.3-0.1,0.5c0,0.2,0,0.3,0.1,0.4c0.1,0.1,0.2,0.2,0.3,0.3s0.3,0.2,0.5,0.2s0.4,0.1,0.6,0.2
		c0.3,0.1,0.7,0.2,1.1,0.4c0.4,0.1,0.7,0.3,1,0.5c0.3,0.2,0.5,0.5,0.7,0.8c0.2,0.3,0.3,0.7,0.3,1.2c0,0.6-0.1,1.1-0.3,1.5
		s-0.5,0.8-0.8,1c-0.4,0.3-0.8,0.5-1.2,0.6c-0.5,0.1-0.9,0.2-1.4,0.2c-0.7,0-1.4-0.1-2.1-0.4c-0.7-0.2-1.2-0.6-1.7-1.1l1.6-1.6
		c0.2,0.3,0.6,0.5,1,0.7c0.4,0.2,0.8,0.3,1.2,0.3c0.2,0,0.4,0,0.5-0.1c0.2,0,0.3-0.1,0.4-0.2s0.2-0.2,0.3-0.3
		c0.1-0.1,0.1-0.3,0.1-0.5c0-0.2,0-0.3-0.1-0.5s-0.2-0.2-0.4-0.4s-0.4-0.2-0.6-0.3s-0.5-0.2-0.9-0.3c-0.3-0.1-0.6-0.2-0.9-0.4
		c-0.3-0.1-0.6-0.3-0.8-0.5c-0.2-0.2-0.4-0.5-0.6-0.8c-0.1-0.3-0.2-0.7-0.2-1.1c0-0.5,0.1-1,0.3-1.4c0.2-0.4,0.5-0.7,0.9-1
		c0.4-0.3,0.8-0.4,1.2-0.6c0.5-0.1,0.9-0.2,1.4-0.2c0.6,0,1.1,0.1,1.7,0.3c0.6,0.2,1.1,0.5,1.5,0.9L266.8,281.2z"/>
	<path d="M166.4,303h-1.1v-9.1h1.1V303z"/>
	<path d="M172.1,299.3c0-0.4-0.1-0.7-0.4-0.9c-0.3-0.2-0.6-0.3-1-0.3c-0.3,0-0.6,0.1-0.9,0.2c-0.3,0.1-0.5,0.3-0.7,0.5l-0.6-0.7
		c0.3-0.3,0.6-0.5,1-0.6c0.4-0.2,0.8-0.2,1.3-0.2c0.4,0,0.8,0.1,1.1,0.2c0.3,0.1,0.5,0.3,0.7,0.5s0.3,0.4,0.4,0.7
		c0.1,0.3,0.1,0.6,0.1,0.9v2.5c0,0.2,0,0.4,0,0.6c0,0.2,0,0.4,0.1,0.5h-1c-0.1-0.3-0.1-0.5-0.1-0.8h0c-0.2,0.3-0.5,0.5-0.8,0.7
		s-0.7,0.3-1.1,0.3c-0.2,0-0.5,0-0.7-0.1c-0.2-0.1-0.5-0.2-0.7-0.3c-0.2-0.1-0.4-0.3-0.5-0.5s-0.2-0.5-0.2-0.8c0-0.4,0.1-0.8,0.3-1
		s0.5-0.4,0.9-0.6c0.4-0.1,0.8-0.2,1.3-0.3c0.5,0,0.9-0.1,1.4-0.1V299.3z M171.8,300.3c-0.3,0-0.6,0-0.9,0c-0.3,0-0.6,0.1-0.8,0.1
		c-0.2,0.1-0.4,0.2-0.6,0.3c-0.2,0.1-0.2,0.3-0.2,0.6c0,0.2,0,0.3,0.1,0.4c0.1,0.1,0.2,0.2,0.3,0.3c0.1,0.1,0.2,0.1,0.4,0.1
		c0.1,0,0.3,0,0.4,0c0.5,0,0.9-0.2,1.2-0.5s0.4-0.7,0.4-1.2v-0.3H171.8z"/>
	<path d="M175.3,297.9c0-0.2,0-0.5,0-0.6h1.1c0,0.1,0,0.3,0,0.5s0,0.3,0,0.5h0c0.2-0.3,0.4-0.6,0.7-0.8c0.3-0.2,0.7-0.3,1-0.3
		c0.2,0,0.3,0,0.4,0l0,1c-0.2,0-0.3-0.1-0.5-0.1c-0.3,0-0.5,0.1-0.7,0.2c-0.2,0.1-0.4,0.2-0.5,0.4c-0.1,0.2-0.2,0.4-0.3,0.6
		s-0.1,0.5-0.1,0.7v3h-1.1v-4.5C175.3,298.4,175.3,298.2,175.3,297.9z"/>
	<path d="M183.2,299.3c0-0.4-0.1-0.7-0.4-0.9c-0.3-0.2-0.6-0.3-1-0.3c-0.3,0-0.6,0.1-0.9,0.2c-0.3,0.1-0.5,0.3-0.7,0.5l-0.6-0.7
		c0.3-0.3,0.6-0.5,1-0.6c0.4-0.2,0.8-0.2,1.3-0.2c0.4,0,0.8,0.1,1.1,0.2c0.3,0.1,0.5,0.3,0.7,0.5s0.3,0.4,0.4,0.7
		c0.1,0.3,0.1,0.6,0.1,0.9v2.5c0,0.2,0,0.4,0,0.6c0,0.2,0,0.4,0.1,0.5h-1c-0.1-0.3-0.1-0.5-0.1-0.8h0c-0.2,0.3-0.5,0.5-0.8,0.7
		s-0.7,0.3-1.1,0.3c-0.2,0-0.5,0-0.7-0.1c-0.2-0.1-0.5-0.2-0.7-0.3c-0.2-0.1-0.4-0.3-0.5-0.5s-0.2-0.5-0.2-0.8c0-0.4,0.1-0.8,0.3-1
		s0.5-0.4,0.9-0.6c0.4-0.1,0.8-0.2,1.3-0.3c0.5,0,0.9-0.1,1.4-0.1V299.3z M182.9,300.3c-0.3,0-0.6,0-0.9,0c-0.3,0-0.6,0.1-0.8,0.1
		c-0.2,0.1-0.4,0.2-0.6,0.3c-0.2,0.1-0.2,0.3-0.2,0.6c0,0.2,0,0.3,0.1,0.4c0.1,0.1,0.2,0.2,0.3,0.3c0.1,0.1,0.2,0.1,0.4,0.1
		c0.1,0,0.3,0,0.4,0c0.5,0,0.9-0.2,1.2-0.5s0.4-0.7,0.4-1.2v-0.3H182.9z"/>
	<path d="M187.5,298.2c0.1-0.3,0.4-0.5,0.7-0.7c0.3-0.2,0.7-0.3,1.1-0.3c0.4,0,0.7,0.1,0.9,0.2s0.5,0.3,0.7,0.5
		c0.2,0.2,0.3,0.5,0.4,0.7s0.1,0.6,0.1,0.9v3.5h-1.1v-3.2c0-0.2,0-0.5-0.1-0.7c0-0.2-0.1-0.4-0.2-0.6c-0.1-0.2-0.2-0.3-0.4-0.4
		s-0.4-0.1-0.6-0.1c-0.4,0-0.8,0.2-1.1,0.5c-0.3,0.3-0.4,0.8-0.4,1.4v3h-1.1v-9.1h1.1L187.5,298.2L187.5,298.2z"/>
	<path d="M198.9,300.1c0,0.1,0,0.1,0,0.2c0,0.1,0,0.1,0,0.2h-4.5c0,0.2,0.1,0.5,0.2,0.7s0.2,0.4,0.4,0.5c0.2,0.2,0.4,0.3,0.6,0.4
		c0.2,0.1,0.5,0.1,0.7,0.1c0.4,0,0.7-0.1,1-0.3c0.3-0.2,0.5-0.4,0.7-0.6l0.8,0.6c-0.3,0.4-0.7,0.7-1.1,0.9c-0.4,0.2-0.9,0.3-1.4,0.3
		c-0.4,0-0.8-0.1-1.2-0.2s-0.7-0.3-0.9-0.6c-0.3-0.3-0.5-0.6-0.6-0.9c-0.2-0.4-0.2-0.8-0.2-1.2c0-0.4,0.1-0.8,0.2-1.2
		c0.1-0.4,0.4-0.7,0.6-1c0.3-0.3,0.6-0.5,0.9-0.6c0.4-0.1,0.7-0.2,1.2-0.2c0.4,0,0.8,0.1,1.1,0.2c0.3,0.1,0.6,0.3,0.9,0.6
		c0.2,0.3,0.4,0.6,0.5,0.9C198.8,299.2,198.9,299.6,198.9,300.1z M197.7,299.6c0-0.2,0-0.4-0.1-0.6c-0.1-0.2-0.2-0.4-0.3-0.5
		c-0.1-0.1-0.3-0.3-0.5-0.3c-0.2-0.1-0.4-0.1-0.7-0.1c-0.2,0-0.5,0-0.7,0.1s-0.4,0.2-0.6,0.3c-0.2,0.1-0.3,0.3-0.4,0.5
		c-0.1,0.2-0.2,0.4-0.2,0.6H197.7z"/>
	<path d="M201.7,297.3c0,0.1,0,0.3,0,0.5c0,0.2,0,0.3,0,0.5h0c0.1-0.2,0.2-0.3,0.3-0.4s0.3-0.2,0.4-0.3s0.3-0.2,0.5-0.2
		c0.2-0.1,0.4-0.1,0.6-0.1c0.4,0,0.7,0.1,0.9,0.2s0.5,0.3,0.7,0.5c0.2,0.2,0.3,0.5,0.4,0.7s0.1,0.6,0.1,0.9v3.5h-1.1v-3.2
		c0-0.2,0-0.5-0.1-0.7c0-0.2-0.1-0.4-0.2-0.6c-0.1-0.2-0.2-0.3-0.4-0.4c-0.2-0.1-0.4-0.1-0.6-0.1c-0.4,0-0.8,0.2-1.1,0.5
		s-0.4,0.8-0.4,1.4v3h-1.1v-4.5c0-0.2,0-0.3,0-0.6s0-0.5,0-0.6H201.7z"/>
	<path d="M212.4,302.1c-0.2,0.3-0.5,0.6-0.9,0.8c-0.4,0.2-0.8,0.3-1.2,0.3c-0.4,0-0.8-0.1-1.2-0.2s-0.7-0.4-0.9-0.6
		c-0.2-0.3-0.4-0.6-0.6-1c-0.1-0.4-0.2-0.8-0.2-1.2s0.1-0.8,0.2-1.2c0.1-0.4,0.3-0.7,0.6-1s0.6-0.5,0.9-0.6c0.4-0.2,0.7-0.2,1.2-0.2
		c0.5,0,0.9,0.1,1.2,0.3c0.3,0.2,0.6,0.4,0.8,0.7h0v-4.2h1.1v9.1h-1.1L212.4,302.1L212.4,302.1z M208.6,300.1c0,0.3,0,0.5,0.1,0.8
		s0.2,0.5,0.4,0.7c0.2,0.2,0.4,0.3,0.6,0.5s0.5,0.2,0.8,0.2c0.3,0,0.5-0.1,0.8-0.2c0.2-0.1,0.4-0.3,0.6-0.4s0.3-0.4,0.4-0.7
		c0.1-0.2,0.1-0.5,0.1-0.8c0-0.3,0-0.5-0.1-0.8c-0.1-0.2-0.2-0.5-0.4-0.7c-0.2-0.2-0.4-0.3-0.6-0.5c-0.2-0.1-0.5-0.2-0.8-0.2
		c-0.3,0-0.6,0.1-0.8,0.2c-0.2,0.1-0.4,0.3-0.6,0.5c-0.2,0.2-0.3,0.4-0.4,0.7S208.6,299.9,208.6,300.1z"/>
	<path d="M221,300.1c0,0.1,0,0.1,0,0.2c0,0.1,0,0.1,0,0.2h-4.5c0,0.2,0.1,0.5,0.2,0.7s0.2,0.4,0.4,0.5c0.2,0.2,0.4,0.3,0.6,0.4
		c0.2,0.1,0.5,0.1,0.7,0.1c0.4,0,0.7-0.1,1-0.3c0.3-0.2,0.5-0.4,0.7-0.6l0.8,0.6c-0.3,0.4-0.7,0.7-1.1,0.9c-0.4,0.2-0.9,0.3-1.4,0.3
		c-0.4,0-0.8-0.1-1.2-0.2s-0.7-0.3-0.9-0.6c-0.3-0.3-0.5-0.6-0.6-0.9c-0.2-0.4-0.2-0.8-0.2-1.2c0-0.4,0.1-0.8,0.2-1.2
		c0.1-0.4,0.4-0.7,0.6-1c0.3-0.3,0.6-0.5,0.9-0.6c0.4-0.1,0.7-0.2,1.2-0.2c0.4,0,0.8,0.1,1.1,0.2c0.3,0.1,0.6,0.3,0.9,0.6
		c0.2,0.3,0.4,0.6,0.5,0.9C220.9,299.2,221,299.6,221,300.1z M219.8,299.6c0-0.2,0-0.4-0.1-0.6c-0.1-0.2-0.2-0.4-0.3-0.5
		c-0.1-0.1-0.3-0.3-0.5-0.3c-0.2-0.1-0.4-0.1-0.7-0.1c-0.2,0-0.5,0-0.7,0.1s-0.4,0.2-0.6,0.3c-0.2,0.1-0.3,0.3-0.4,0.5
		c-0.1,0.2-0.2,0.4-0.2,0.6H219.8z"/>
	<path d="M222.7,297.9c0-0.2,0-0.5,0-0.6h1.1c0,0.1,0,0.3,0,0.5s0,0.3,0,0.5h0c0.2-0.3,0.4-0.6,0.7-0.8c0.3-0.2,0.7-0.3,1-0.3
		c0.2,0,0.3,0,0.4,0l0,1c-0.2,0-0.3-0.1-0.5-0.1c-0.3,0-0.5,0.1-0.7,0.2c-0.2,0.1-0.4,0.2-0.5,0.4c-0.1,0.2-0.2,0.4-0.3,0.6
		s-0.1,0.5-0.1,0.7v3h-1.1v-4.5C222.7,298.4,222.7,298.2,222.7,297.9z"/>
	<path d="M230.4,298.7c-0.1-0.2-0.3-0.4-0.5-0.5c-0.2-0.1-0.5-0.2-0.8-0.2c-0.1,0-0.3,0-0.4,0c-0.1,0-0.2,0.1-0.3,0.1
		c-0.1,0.1-0.2,0.1-0.2,0.2c-0.1,0.1-0.1,0.2-0.1,0.3c0,0.2,0.1,0.4,0.3,0.5c0.2,0.1,0.5,0.2,1,0.3c0.3,0.1,0.5,0.1,0.8,0.2
		c0.2,0.1,0.4,0.2,0.6,0.3c0.2,0.1,0.3,0.3,0.4,0.5s0.1,0.4,0.1,0.6c0,0.3-0.1,0.6-0.2,0.9c-0.1,0.2-0.3,0.4-0.5,0.6
		c-0.2,0.1-0.5,0.3-0.7,0.3s-0.6,0.1-0.8,0.1c-0.4,0-0.9-0.1-1.3-0.3s-0.8-0.4-1-0.8l0.8-0.7c0.2,0.2,0.4,0.4,0.6,0.6
		s0.6,0.2,0.9,0.2c0.1,0,0.3,0,0.4,0c0.1,0,0.3-0.1,0.4-0.1s0.2-0.1,0.3-0.3c0.1-0.1,0.1-0.2,0.1-0.4c0-0.3-0.1-0.5-0.4-0.6
		c-0.3-0.1-0.6-0.2-1.1-0.4c-0.2,0-0.4-0.1-0.6-0.2c-0.2-0.1-0.4-0.2-0.5-0.3c-0.2-0.1-0.3-0.3-0.4-0.5c-0.1-0.2-0.2-0.4-0.2-0.7
		c0-0.3,0.1-0.6,0.2-0.8c0.1-0.2,0.3-0.4,0.5-0.5c0.2-0.1,0.4-0.2,0.7-0.3c0.3-0.1,0.5-0.1,0.8-0.1c0.4,0,0.8,0.1,1.2,0.2
		s0.7,0.4,0.9,0.7L230.4,298.7z"/>
	<path d="M238.6,300.1c0,0.4-0.1,0.8-0.2,1.2c-0.2,0.4-0.4,0.7-0.6,1s-0.6,0.5-1,0.6s-0.8,0.2-1.2,0.2c-0.4,0-0.8-0.1-1.2-0.2
		c-0.4-0.1-0.7-0.4-1-0.6s-0.5-0.6-0.6-1c-0.2-0.4-0.2-0.8-0.2-1.2s0.1-0.8,0.2-1.2c0.2-0.4,0.4-0.7,0.6-0.9c0.3-0.3,0.6-0.5,1-0.6
		c0.4-0.1,0.8-0.2,1.2-0.2c0.4,0,0.8,0.1,1.2,0.2c0.4,0.1,0.7,0.4,1,0.6c0.3,0.3,0.5,0.6,0.6,0.9
		C238.5,299.3,238.6,299.7,238.6,300.1z M237.4,300.1c0-0.3,0-0.5-0.1-0.8c-0.1-0.2-0.2-0.5-0.4-0.7s-0.4-0.3-0.6-0.4
		c-0.2-0.1-0.5-0.2-0.8-0.2c-0.3,0-0.6,0.1-0.8,0.2c-0.2,0.1-0.4,0.3-0.6,0.4c-0.2,0.2-0.3,0.4-0.4,0.7c-0.1,0.2-0.1,0.5-0.1,0.8
		c0,0.3,0,0.5,0.1,0.8c0.1,0.2,0.2,0.5,0.4,0.7c0.2,0.2,0.4,0.3,0.6,0.5s0.5,0.2,0.8,0.2c0.3,0,0.6-0.1,0.8-0.2
		c0.2-0.1,0.4-0.3,0.6-0.5s0.3-0.4,0.4-0.7C237.4,300.7,237.4,300.4,237.4,300.1z"/>
	<path d="M241.4,297.3c0,0.1,0,0.3,0,0.5c0,0.2,0,0.3,0,0.5h0c0.1-0.2,0.2-0.3,0.3-0.4s0.3-0.2,0.4-0.3s0.3-0.2,0.5-0.2
		c0.2-0.1,0.4-0.1,0.6-0.1c0.4,0,0.7,0.1,0.9,0.2s0.5,0.3,0.7,0.5c0.2,0.2,0.3,0.5,0.4,0.7s0.1,0.6,0.1,0.9v3.5h-1.1v-3.2
		c0-0.2,0-0.5-0.1-0.7c0-0.2-0.1-0.4-0.2-0.6c-0.1-0.2-0.2-0.3-0.4-0.4c-0.2-0.1-0.4-0.1-0.6-0.1c-0.4,0-0.8,0.2-1.1,0.5
		s-0.4,0.8-0.4,1.4v3h-1.1v-4.5c0-0.2,0-0.3,0-0.6s0-0.5,0-0.6H241.4z"/>
	<path d="M248.9,302.3c0,0.2-0.1,0.4-0.2,0.6c-0.2,0.2-0.3,0.2-0.6,0.2c-0.2,0-0.4-0.1-0.6-0.2c-0.2-0.2-0.2-0.3-0.2-0.5
		c0-0.2,0.1-0.4,0.2-0.6c0.2-0.2,0.3-0.2,0.6-0.2c0.2,0,0.4,0.1,0.6,0.2C248.9,301.9,248.9,302,248.9,302.3z"/>
	<path d="M254.8,298.7c-0.1-0.2-0.3-0.3-0.5-0.5c-0.2-0.1-0.5-0.2-0.8-0.2c-0.3,0-0.6,0.1-0.8,0.2c-0.2,0.1-0.4,0.3-0.6,0.5
		c-0.2,0.2-0.3,0.4-0.4,0.7s-0.1,0.5-0.1,0.8c0,0.3,0,0.5,0.1,0.8s0.2,0.5,0.4,0.7c0.2,0.2,0.4,0.3,0.6,0.4c0.2,0.1,0.5,0.2,0.8,0.2
		c0.3,0,0.5-0.1,0.8-0.2c0.2-0.1,0.4-0.3,0.6-0.5l0.8,0.7c-0.2,0.3-0.5,0.5-0.9,0.7c-0.4,0.2-0.8,0.2-1.2,0.2
		c-0.4,0-0.8-0.1-1.2-0.2s-0.7-0.3-1-0.6s-0.5-0.6-0.6-0.9c-0.2-0.4-0.2-0.8-0.2-1.2c0-0.4,0.1-0.9,0.2-1.2c0.2-0.4,0.4-0.7,0.6-0.9
		c0.3-0.3,0.6-0.5,1-0.6c0.4-0.1,0.8-0.2,1.2-0.2c0.4,0,0.8,0.1,1.2,0.2s0.7,0.4,0.9,0.7L254.8,298.7z"/>
	<path d="M262.8,300.1c0,0.4-0.1,0.8-0.2,1.2c-0.2,0.4-0.4,0.7-0.6,1s-0.6,0.5-1,0.6s-0.8,0.2-1.2,0.2c-0.4,0-0.8-0.1-1.2-0.2
		c-0.4-0.1-0.7-0.4-1-0.6s-0.5-0.6-0.6-1c-0.2-0.4-0.2-0.8-0.2-1.2s0.1-0.8,0.2-1.2c0.2-0.4,0.4-0.7,0.6-0.9c0.3-0.3,0.6-0.5,1-0.6
		c0.4-0.1,0.8-0.2,1.2-0.2c0.4,0,0.8,0.1,1.2,0.2c0.4,0.1,0.7,0.4,1,0.6c0.3,0.3,0.5,0.6,0.6,0.9
		C262.7,299.3,262.8,299.7,262.8,300.1z M261.6,300.1c0-0.3,0-0.5-0.1-0.8c-0.1-0.2-0.2-0.5-0.4-0.7s-0.4-0.3-0.6-0.4
		c-0.2-0.1-0.5-0.2-0.8-0.2c-0.3,0-0.6,0.1-0.8,0.2c-0.2,0.1-0.4,0.3-0.6,0.4c-0.2,0.2-0.3,0.4-0.4,0.7c-0.1,0.2-0.1,0.5-0.1,0.8
		c0,0.3,0,0.5,0.1,0.8c0.1,0.2,0.2,0.5,0.4,0.7c0.2,0.2,0.4,0.3,0.6,0.5s0.5,0.2,0.8,0.2c0.3,0,0.6-0.1,0.8-0.2
		c0.2-0.1,0.4-0.3,0.6-0.5s0.3-0.4,0.4-0.7C261.5,300.7,261.6,300.4,261.6,300.1z"/>
	<path d="M266.3,297.5c0.3-0.2,0.7-0.3,1.1-0.3c0.4,0,0.7,0.1,1,0.3c0.3,0.2,0.6,0.5,0.7,0.9c0.2-0.4,0.5-0.6,0.8-0.8
		c0.3-0.2,0.7-0.3,1.1-0.3c0.4,0,0.7,0.1,0.9,0.2c0.3,0.1,0.5,0.3,0.7,0.5c0.2,0.2,0.3,0.5,0.4,0.7s0.1,0.6,0.1,0.9v3.5h-1.1v-3.2
		c0-0.2,0-0.5-0.1-0.7s-0.1-0.4-0.2-0.6c-0.1-0.2-0.2-0.3-0.4-0.4c-0.2-0.1-0.4-0.1-0.6-0.1c-0.3,0-0.5,0.1-0.7,0.2
		c-0.2,0.1-0.3,0.2-0.5,0.4c-0.1,0.2-0.2,0.4-0.3,0.6c-0.1,0.2-0.1,0.4-0.1,0.7v3.1h-1.1v-3.4c0-0.2,0-0.4-0.1-0.6
		c0-0.2-0.1-0.3-0.2-0.5c-0.1-0.1-0.2-0.2-0.4-0.3c-0.2-0.1-0.3-0.1-0.6-0.1c-0.4,0-0.8,0.2-1,0.5c-0.3,0.3-0.4,0.8-0.4,1.4v3h-1.1
		v-4.5c0-0.2,0-0.3,0-0.6s0-0.5,0-0.6h1.1c0,0.1,0,0.3,0,0.5c0,0.2,0,0.3,0,0.5h0C265.8,297.9,266,297.7,266.3,297.5z"/>
</g>
<rect x="340" y="156" transform="matrix(4.489393e-11 -1 1 4.489393e-11 130 694)" class="st1" width="144" height="252"/>
<g id="Layer_1_00000158717902030168065310000017972811502103682199_">
	<path class="st0" d="M352.8,88.5c-25.9,0-47,21.1-47,47s21.1,47,47,47s47-21.1,47-47S378.8,88.5,352.8,88.5z M356.4,103
		c10.2,7.2,16.8,19.1,16.8,32.5c0,13.4-6.7,25.3-16.8,32.5V103z M349.2,167.6c-9.9-7.2-16.3-18.9-16.3-32.1
		c0-13.1,6.4-24.8,16.3-32.1V167.6z M313.1,135.5c0-19.9,14.7-36.5,33.8-39.3c-12.9,8.5-21.3,22.9-21.3,39.3s8.6,31,21.3,39.3
		C327.7,171.9,313.1,155.5,313.1,135.5z M359.4,174.7c12.8-8.5,21.1-22.9,21.1-39.2c0-16.5-8.5-30.9-21.3-39.3
		c18.9,3.1,33.4,19.5,33.4,39.3C392.6,155.2,378.2,171.6,359.4,174.7z"/>
</g>
<g id="l_00000077293292211306318220000008766096525732062391_">
	<path class="st0" d="M316.2,141.1v-9.3h2.2v7.3h3.6v2C322.1,141.1,316.2,141.1,316.2,141.1z"/>
</g>
<g id="firstA_00000155829475908960340620000016668445219935094462_">
	<path class="st0" d="M343.2,141.1l-0.7-1.8h-3.6l-0.7,1.8h-2.4l3.9-9.3h2.2l3.9,9.3H343.2z M340.7,134.4l-1.2,3.1h2.3L340.7,134.4z
		"/>
</g>
<g id="r_00000090983383522276113060000004086863845499609740_">
	<path class="st0" d="M365.5,141.2l-2.1-3.7h-0.8v3.7h-2.2v-9.4h3.6c0.4,0,0.9,0.1,1.4,0.2c0.4,0.1,0.8,0.3,1.2,0.4
		c0.4,0.2,0.6,0.5,0.8,0.9c0.2,0.4,0.3,0.8,0.3,1.3c0,0.6-0.2,1.2-0.5,1.6c-0.4,0.4-0.8,0.7-1.4,0.9l2.4,4.1H365.5z M365.4,134.7
		c0-0.2-0.1-0.4-0.2-0.5c-0.1-0.2-0.2-0.3-0.4-0.4c-0.2-0.1-0.3-0.1-0.5-0.2c-0.2,0-0.4,0-0.5,0h-1.2v2.2h1.1c0.2,0,0.4,0,0.5-0.1
		c0.2,0,0.4-0.1,0.5-0.2c0.2-0.1,0.3-0.2,0.4-0.4C365.4,135.1,365.4,134.9,365.4,134.7z"/>
</g>
<g id="secondA_00000012440114158127068680000014815099837860249496_">
	<path class="st0" d="M388.8,141.1l-0.7-1.8h-3.6l-0.7,1.8h-2.4l3.9-9.3h2.2l3.9,9.3H388.8z M386.4,134.4l-1.2,3.1h2.3L386.4,134.4z
		"/>
</g>
<g>
	<path d="M424.3,141.6l0.1-7h0l-2.6,7H420l-2.5-7h0l0.1,7h-2.3v-9.9h3.4l2.3,6.4h0.1l2.2-6.4h3.5v9.9H424.3z"/>
	<path d="M436.2,141.6l-0.8-1.9h-3.8l-0.7,1.9h-2.6l4.2-9.9h2.3l4.1,9.9H436.2z M433.6,134.3l-1.3,3.4h2.5L433.6,134.3z"/>
	<path d="M446.6,141.6l-3.7-4.6h0v4.6h-2.3v-9.9h2.3v4h0l3.5-4h3l-4.3,4.6l4.5,5.3H446.6z"/>
	<path d="M451.4,141.6v-9.9h6.7v2h-4.4v1.9h4.1v1.9h-4.1v2.1h4.6v2H451.4z"/>
	<path d="M472.8,138.7c0,0.5-0.1,1-0.3,1.4s-0.5,0.7-0.9,0.9c-0.4,0.2-0.8,0.4-1.2,0.5c-0.5,0.1-0.9,0.1-1.4,0.1h-3.9v-9.9h3.9
		c0.4,0,0.8,0,1.2,0.1c0.4,0.1,0.8,0.2,1.1,0.4c0.3,0.2,0.6,0.5,0.8,0.8c0.2,0.3,0.3,0.7,0.3,1.2c0,0.6-0.1,1-0.4,1.4
		s-0.7,0.6-1.2,0.8v0c0.3,0,0.5,0.1,0.8,0.3c0.2,0.1,0.5,0.3,0.6,0.5c0.2,0.2,0.3,0.4,0.4,0.7C472.8,138.1,472.8,138.4,472.8,138.7z
		 M470.1,134.5c0-0.3-0.1-0.6-0.4-0.7c-0.3-0.2-0.6-0.2-1.1-0.2h-1.2v2h1.3c0.4,0,0.8-0.1,1-0.3C470,135.2,470.1,134.9,470.1,134.5z
		 M470.4,138.5c0-0.4-0.2-0.7-0.5-0.9c-0.3-0.2-0.7-0.2-1.2-0.2h-1.3v2.3h1.3c0.2,0,0.4,0,0.6,0s0.4-0.1,0.5-0.2
		c0.2-0.1,0.3-0.2,0.4-0.4C470.4,138.9,470.4,138.7,470.4,138.5z"/>
	<path d="M485.6,136.6c0,0.8-0.1,1.5-0.4,2.1c-0.3,0.6-0.6,1.2-1.1,1.7c-0.5,0.5-1.1,0.8-1.7,1.1c-0.7,0.3-1.4,0.4-2.2,0.4
		s-1.5-0.1-2.1-0.4s-1.2-0.6-1.7-1.1c-0.5-0.5-0.9-1-1.1-1.7c-0.3-0.6-0.4-1.4-0.4-2.1c0-0.8,0.1-1.5,0.4-2.1s0.6-1.2,1.1-1.6
		c0.5-0.4,1-0.8,1.7-1s1.4-0.4,2.1-0.4s1.5,0.1,2.2,0.4c0.7,0.2,1.2,0.6,1.7,1c0.5,0.4,0.9,1,1.1,1.6S485.6,135.8,485.6,136.6z
		 M483,136.6c0-0.4-0.1-0.8-0.2-1.2c-0.1-0.4-0.3-0.7-0.6-1c-0.2-0.3-0.5-0.5-0.9-0.6c-0.4-0.2-0.7-0.2-1.2-0.2
		c-0.4,0-0.8,0.1-1.1,0.2s-0.6,0.4-0.9,0.6c-0.3,0.3-0.4,0.6-0.6,1c-0.1,0.4-0.2,0.8-0.2,1.2c0,0.4,0.1,0.9,0.2,1.2
		c0.1,0.4,0.3,0.7,0.6,1c0.2,0.3,0.5,0.5,0.9,0.6c0.3,0.2,0.7,0.2,1.1,0.2c0.4,0,0.8-0.1,1.1-0.2c0.3-0.2,0.6-0.4,0.9-0.6
		c0.3-0.3,0.4-0.6,0.6-1C482.9,137.4,483,137,483,136.6z"/>
	<path d="M498.3,136.6c0,0.8-0.1,1.5-0.4,2.1c-0.3,0.6-0.6,1.2-1.1,1.7c-0.5,0.5-1.1,0.8-1.7,1.1s-1.4,0.4-2.2,0.4
		c-0.8,0-1.5-0.1-2.2-0.4c-0.7-0.3-1.2-0.6-1.7-1.1s-0.9-1-1.1-1.7c-0.3-0.6-0.4-1.4-0.4-2.1c0-0.8,0.1-1.5,0.4-2.1
		c0.3-0.6,0.6-1.2,1.1-1.6c0.5-0.4,1-0.8,1.7-1c0.7-0.2,1.4-0.4,2.2-0.4c0.8,0,1.5,0.1,2.2,0.4s1.2,0.6,1.7,1c0.5,0.4,0.9,1,1.1,1.6
		C498.2,135.1,498.3,135.8,498.3,136.6z M495.8,136.6c0-0.4-0.1-0.8-0.2-1.2c-0.1-0.4-0.3-0.7-0.6-1c-0.2-0.3-0.5-0.5-0.9-0.6
		s-0.7-0.2-1.2-0.2c-0.4,0-0.8,0.1-1.1,0.2c-0.3,0.2-0.6,0.4-0.9,0.6c-0.3,0.3-0.4,0.6-0.6,1c-0.1,0.4-0.2,0.8-0.2,1.2
		c0,0.4,0.1,0.9,0.2,1.2c0.1,0.4,0.3,0.7,0.6,1c0.2,0.3,0.5,0.5,0.9,0.6c0.3,0.2,0.7,0.2,1.1,0.2c0.4,0,0.8-0.1,1.1-0.2
		c0.3-0.2,0.6-0.4,0.9-0.6c0.3-0.3,0.4-0.6,0.6-1C495.7,137.4,495.8,137,495.8,136.6z"/>
	<path d="M506.8,141.6l-3.7-4.6h0v4.6h-2.3v-9.9h2.3v4h0l3.5-4h3l-4.3,4.6l4.5,5.3H506.8z"/>
	<path d="M516.8,134.2c-0.2-0.3-0.5-0.5-0.8-0.6c-0.3-0.2-0.7-0.2-1-0.2c-0.2,0-0.3,0-0.5,0c-0.2,0-0.3,0.1-0.4,0.2
		c-0.1,0.1-0.2,0.2-0.3,0.3c-0.1,0.1-0.1,0.3-0.1,0.5c0,0.2,0,0.3,0.1,0.4c0.1,0.1,0.2,0.2,0.3,0.3s0.3,0.2,0.5,0.2
		c0.2,0.1,0.4,0.1,0.6,0.2c0.3,0.1,0.7,0.2,1,0.4s0.7,0.3,1,0.5c0.3,0.2,0.5,0.5,0.7,0.8c0.2,0.3,0.3,0.7,0.3,1.2
		c0,0.6-0.1,1.1-0.3,1.5c-0.2,0.4-0.5,0.8-0.8,1c-0.4,0.3-0.8,0.5-1.2,0.6c-0.5,0.1-0.9,0.2-1.4,0.2c-0.7,0-1.4-0.1-2.1-0.4
		c-0.7-0.2-1.2-0.6-1.7-1.1l1.6-1.6c0.2,0.3,0.6,0.5,1,0.7c0.4,0.2,0.8,0.3,1.2,0.3c0.2,0,0.4,0,0.5-0.1c0.2,0,0.3-0.1,0.4-0.2
		c0.1-0.1,0.2-0.2,0.3-0.3c0.1-0.1,0.1-0.3,0.1-0.5c0-0.2,0-0.3-0.1-0.5s-0.2-0.2-0.4-0.4c-0.2-0.1-0.4-0.2-0.6-0.3
		c-0.3-0.1-0.5-0.2-0.9-0.3c-0.3-0.1-0.6-0.2-0.9-0.4c-0.3-0.1-0.6-0.3-0.8-0.5c-0.2-0.2-0.4-0.5-0.6-0.8c-0.1-0.3-0.2-0.7-0.2-1.1
		c0-0.6,0.1-1,0.3-1.4c0.2-0.4,0.5-0.7,0.9-1c0.4-0.3,0.8-0.4,1.2-0.6s0.9-0.2,1.4-0.2c0.6,0,1.1,0.1,1.7,0.3
		c0.6,0.2,1.1,0.5,1.5,0.9L516.8,134.2z"/>
	<path d="M416.4,156h-1.1v-9.1h1.1V156z"/>
	<path d="M422.1,152.3c0-0.4-0.1-0.7-0.4-0.9s-0.6-0.3-1-0.3c-0.3,0-0.6,0.1-0.9,0.2c-0.3,0.1-0.5,0.3-0.7,0.5l-0.6-0.7
		c0.3-0.3,0.6-0.5,1-0.6c0.4-0.2,0.8-0.2,1.3-0.2c0.4,0,0.8,0.1,1.1,0.2c0.3,0.1,0.5,0.3,0.7,0.5c0.2,0.2,0.3,0.4,0.4,0.7
		s0.1,0.6,0.1,0.9v2.5c0,0.2,0,0.4,0,0.6s0,0.4,0.1,0.5h-1c-0.1-0.3-0.1-0.5-0.1-0.8h0c-0.2,0.3-0.5,0.5-0.8,0.7
		c-0.3,0.2-0.7,0.3-1.1,0.3c-0.2,0-0.5,0-0.7-0.1c-0.2-0.1-0.5-0.2-0.7-0.3c-0.2-0.1-0.4-0.3-0.5-0.5c-0.1-0.2-0.2-0.5-0.2-0.8
		c0-0.4,0.1-0.8,0.3-1c0.2-0.3,0.5-0.4,0.9-0.6c0.4-0.1,0.8-0.2,1.3-0.3s0.9-0.1,1.4-0.1V152.3z M421.8,153.3c-0.3,0-0.6,0-0.9,0
		c-0.3,0-0.6,0.1-0.8,0.1c-0.2,0.1-0.4,0.2-0.6,0.3s-0.2,0.3-0.2,0.6c0,0.2,0,0.3,0.1,0.4s0.2,0.2,0.3,0.3c0.1,0.1,0.2,0.1,0.4,0.1
		c0.1,0,0.3,0,0.4,0c0.5,0,0.9-0.2,1.2-0.5c0.3-0.3,0.4-0.7,0.4-1.2v-0.3H421.8z"/>
	<path d="M425.3,150.9c0-0.2,0-0.5,0-0.6h1.1c0,0.1,0,0.3,0,0.5s0,0.3,0,0.5h0c0.2-0.3,0.4-0.6,0.7-0.8c0.3-0.2,0.7-0.3,1-0.3
		c0.2,0,0.3,0,0.4,0l0,1c-0.2,0-0.3-0.1-0.5-0.1c-0.3,0-0.5,0.1-0.7,0.1c-0.2,0.1-0.4,0.2-0.5,0.4c-0.1,0.2-0.2,0.4-0.3,0.6
		c-0.1,0.2-0.1,0.5-0.1,0.7v3h-1.1v-4.5C425.3,151.4,425.3,151.2,425.3,150.9z"/>
	<path d="M433.2,152.3c0-0.4-0.1-0.7-0.4-0.9s-0.6-0.3-1-0.3c-0.3,0-0.6,0.1-0.9,0.2c-0.3,0.1-0.5,0.3-0.7,0.5l-0.6-0.7
		c0.3-0.3,0.6-0.5,1-0.6c0.4-0.2,0.8-0.2,1.3-0.2c0.4,0,0.8,0.1,1.1,0.2c0.3,0.1,0.5,0.3,0.7,0.5c0.2,0.2,0.3,0.4,0.4,0.7
		s0.1,0.6,0.1,0.9v2.5c0,0.2,0,0.4,0,0.6s0,0.4,0.1,0.5h-1c-0.1-0.3-0.1-0.5-0.1-0.8h0c-0.2,0.3-0.5,0.5-0.8,0.7
		c-0.3,0.2-0.7,0.3-1.1,0.3c-0.2,0-0.5,0-0.7-0.1c-0.2-0.1-0.5-0.2-0.7-0.3c-0.2-0.1-0.4-0.3-0.5-0.5c-0.1-0.2-0.2-0.5-0.2-0.8
		c0-0.4,0.1-0.8,0.3-1c0.2-0.3,0.5-0.4,0.9-0.6c0.4-0.1,0.8-0.2,1.3-0.3s0.9-0.1,1.4-0.1V152.3z M432.9,153.3c-0.3,0-0.6,0-0.9,0
		c-0.3,0-0.6,0.1-0.8,0.1c-0.2,0.1-0.4,0.2-0.6,0.3s-0.2,0.3-0.2,0.6c0,0.2,0,0.3,0.1,0.4s0.2,0.2,0.3,0.3c0.1,0.1,0.2,0.1,0.4,0.1
		c0.1,0,0.3,0,0.4,0c0.5,0,0.9-0.2,1.2-0.5c0.3-0.3,0.4-0.7,0.4-1.2v-0.3H432.9z"/>
	<path d="M437.5,151.2c0.1-0.3,0.4-0.5,0.7-0.7c0.3-0.2,0.7-0.3,1.1-0.3c0.4,0,0.7,0.1,0.9,0.2c0.3,0.1,0.5,0.3,0.7,0.5
		c0.2,0.2,0.3,0.5,0.4,0.7c0.1,0.3,0.1,0.6,0.1,0.9v3.5h-1.1v-3.2c0-0.2,0-0.5-0.1-0.7c0-0.2-0.1-0.4-0.2-0.6
		c-0.1-0.2-0.2-0.3-0.4-0.4s-0.4-0.1-0.6-0.1c-0.4,0-0.8,0.2-1.1,0.5c-0.3,0.3-0.4,0.8-0.4,1.4v3h-1.1v-9.1h1.1L437.5,151.2
		L437.5,151.2z"/>
	<path d="M448.9,153.1c0,0.1,0,0.1,0,0.2c0,0.1,0,0.1,0,0.2h-4.5c0,0.2,0.1,0.5,0.2,0.7s0.2,0.4,0.4,0.5c0.2,0.2,0.4,0.3,0.6,0.4
		c0.2,0.1,0.5,0.1,0.7,0.1c0.4,0,0.7-0.1,1-0.3c0.3-0.2,0.5-0.4,0.7-0.6l0.8,0.6c-0.3,0.4-0.7,0.7-1.1,0.9c-0.4,0.2-0.9,0.3-1.4,0.3
		c-0.4,0-0.8-0.1-1.2-0.2c-0.4-0.1-0.7-0.3-0.9-0.6c-0.3-0.3-0.5-0.6-0.6-0.9c-0.2-0.4-0.2-0.8-0.2-1.2c0-0.4,0.1-0.8,0.2-1.2
		c0.1-0.4,0.4-0.7,0.6-1c0.3-0.3,0.6-0.5,0.9-0.6c0.4-0.1,0.8-0.2,1.2-0.2c0.4,0,0.8,0.1,1.1,0.2c0.3,0.1,0.6,0.3,0.9,0.6
		c0.2,0.3,0.4,0.6,0.5,0.9C448.8,152.2,448.9,152.6,448.9,153.1z M447.7,152.6c0-0.2,0-0.4-0.1-0.6c-0.1-0.2-0.2-0.4-0.3-0.5
		c-0.1-0.1-0.3-0.3-0.5-0.3c-0.2-0.1-0.4-0.1-0.7-0.1c-0.2,0-0.5,0-0.7,0.1c-0.2,0.1-0.4,0.2-0.6,0.3c-0.2,0.1-0.3,0.3-0.4,0.5
		c-0.1,0.2-0.2,0.4-0.2,0.6H447.7z"/>
	<path d="M451.7,150.3c0,0.1,0,0.3,0,0.5c0,0.2,0,0.3,0,0.5h0c0.1-0.2,0.2-0.3,0.3-0.4c0.1-0.1,0.3-0.2,0.4-0.3s0.3-0.2,0.5-0.2
		c0.2-0.1,0.4-0.1,0.6-0.1c0.4,0,0.7,0.1,0.9,0.2c0.3,0.1,0.5,0.3,0.7,0.5c0.2,0.2,0.3,0.5,0.4,0.7c0.1,0.3,0.1,0.6,0.1,0.9v3.5
		h-1.1v-3.2c0-0.2,0-0.5-0.1-0.7c0-0.2-0.1-0.4-0.2-0.6c-0.1-0.2-0.2-0.3-0.4-0.4s-0.4-0.1-0.6-0.1c-0.4,0-0.8,0.2-1.1,0.5
		c-0.3,0.3-0.4,0.8-0.4,1.4v3h-1.1v-4.5c0-0.2,0-0.3,0-0.6c0-0.2,0-0.5,0-0.6H451.7z"/>
	<path d="M462.4,155.1c-0.2,0.3-0.5,0.6-0.9,0.8c-0.4,0.2-0.8,0.3-1.2,0.3c-0.4,0-0.8-0.1-1.2-0.2c-0.4-0.2-0.7-0.4-0.9-0.6
		c-0.2-0.3-0.4-0.6-0.6-1c-0.1-0.4-0.2-0.8-0.2-1.2s0.1-0.8,0.2-1.2c0.1-0.4,0.3-0.7,0.6-1s0.6-0.5,0.9-0.6c0.4-0.2,0.7-0.2,1.2-0.2
		c0.5,0,0.9,0.1,1.2,0.3c0.3,0.2,0.6,0.4,0.8,0.7h0v-4.2h1.1v9.1h-1.1L462.4,155.1L462.4,155.1z M458.6,153.1c0,0.3,0,0.5,0.1,0.8
		c0.1,0.2,0.2,0.5,0.4,0.7c0.2,0.2,0.4,0.3,0.6,0.5c0.2,0.1,0.5,0.2,0.8,0.2c0.3,0,0.5-0.1,0.8-0.2s0.4-0.3,0.6-0.4s0.3-0.4,0.4-0.7
		c0.1-0.2,0.1-0.5,0.1-0.8s0-0.5-0.1-0.8s-0.2-0.5-0.4-0.7c-0.2-0.2-0.4-0.3-0.6-0.5s-0.5-0.2-0.8-0.2c-0.3,0-0.6,0.1-0.8,0.2
		c-0.2,0.1-0.4,0.3-0.6,0.5c-0.2,0.2-0.3,0.4-0.4,0.7S458.6,152.9,458.6,153.1z"/>
	<path d="M471,153.1c0,0.1,0,0.1,0,0.2c0,0.1,0,0.1,0,0.2h-4.5c0,0.2,0.1,0.5,0.2,0.7s0.2,0.4,0.4,0.5c0.2,0.2,0.4,0.3,0.6,0.4
		c0.2,0.1,0.5,0.1,0.7,0.1c0.4,0,0.7-0.1,1-0.3c0.3-0.2,0.5-0.4,0.7-0.6l0.8,0.6c-0.3,0.4-0.7,0.7-1.1,0.9c-0.4,0.2-0.9,0.3-1.4,0.3
		c-0.4,0-0.8-0.1-1.2-0.2c-0.4-0.1-0.7-0.3-0.9-0.6c-0.3-0.3-0.5-0.6-0.6-0.9c-0.2-0.4-0.2-0.8-0.2-1.2c0-0.4,0.1-0.8,0.2-1.2
		c0.1-0.4,0.4-0.7,0.6-1c0.3-0.3,0.6-0.5,0.9-0.6c0.4-0.1,0.8-0.2,1.2-0.2c0.4,0,0.8,0.1,1.1,0.2c0.3,0.1,0.6,0.3,0.9,0.6
		c0.2,0.3,0.4,0.6,0.5,0.9C470.9,152.2,471,152.6,471,153.1z M469.8,152.6c0-0.2,0-0.4-0.1-0.6c-0.1-0.2-0.2-0.4-0.3-0.5
		c-0.1-0.1-0.3-0.3-0.5-0.3c-0.2-0.1-0.4-0.1-0.7-0.1c-0.2,0-0.5,0-0.7,0.1c-0.2,0.1-0.4,0.2-0.6,0.3c-0.2,0.1-0.3,0.3-0.4,0.5
		c-0.1,0.2-0.2,0.4-0.2,0.6H469.8z"/>
	<path d="M472.7,150.9c0-0.2,0-0.5,0-0.6h1.1c0,0.1,0,0.3,0,0.5s0,0.3,0,0.5h0c0.2-0.3,0.4-0.6,0.7-0.8c0.3-0.2,0.7-0.3,1-0.3
		c0.2,0,0.3,0,0.4,0l0,1c-0.2,0-0.3-0.1-0.5-0.1c-0.3,0-0.5,0.1-0.7,0.1c-0.2,0.1-0.4,0.2-0.5,0.4c-0.1,0.2-0.2,0.4-0.3,0.6
		c-0.1,0.2-0.1,0.5-0.1,0.7v3h-1.1v-4.5C472.7,151.4,472.7,151.2,472.7,150.9z"/>
	<path d="M480.4,151.7c-0.1-0.2-0.3-0.4-0.5-0.5c-0.2-0.1-0.5-0.2-0.8-0.2c-0.1,0-0.3,0-0.4,0c-0.1,0-0.2,0.1-0.3,0.1
		c-0.1,0.1-0.2,0.1-0.2,0.2c-0.1,0.1-0.1,0.2-0.1,0.3c0,0.2,0.1,0.4,0.3,0.5c0.2,0.1,0.5,0.2,1,0.3c0.3,0.1,0.5,0.1,0.8,0.2
		s0.4,0.2,0.6,0.3c0.2,0.1,0.3,0.3,0.4,0.5c0.1,0.2,0.1,0.4,0.1,0.6c0,0.3-0.1,0.6-0.2,0.9c-0.1,0.2-0.3,0.4-0.5,0.6
		c-0.2,0.1-0.5,0.3-0.7,0.3s-0.6,0.1-0.8,0.1c-0.4,0-0.9-0.1-1.3-0.3s-0.8-0.4-1-0.8l0.8-0.7c0.2,0.2,0.4,0.4,0.6,0.6
		c0.3,0.2,0.6,0.2,0.9,0.2c0.1,0,0.3,0,0.4,0c0.1,0,0.3-0.1,0.4-0.1s0.2-0.1,0.3-0.3s0.1-0.2,0.1-0.4c0-0.3-0.1-0.5-0.4-0.6
		s-0.6-0.2-1.1-0.4c-0.2,0-0.4-0.1-0.6-0.2c-0.2-0.1-0.4-0.2-0.5-0.3c-0.2-0.1-0.3-0.3-0.4-0.5c-0.1-0.2-0.2-0.4-0.2-0.7
		c0-0.3,0.1-0.6,0.2-0.8c0.1-0.2,0.3-0.4,0.5-0.5c0.2-0.1,0.4-0.2,0.7-0.3c0.3-0.1,0.5-0.1,0.8-0.1c0.4,0,0.8,0.1,1.2,0.2
		s0.7,0.4,0.9,0.7L480.4,151.7z"/>
	<path d="M488.6,153.1c0,0.4-0.1,0.8-0.2,1.2c-0.2,0.4-0.4,0.7-0.6,1c-0.3,0.3-0.6,0.5-1,0.6s-0.8,0.2-1.2,0.2
		c-0.4,0-0.8-0.1-1.2-0.2c-0.4-0.1-0.7-0.4-1-0.6c-0.3-0.3-0.5-0.6-0.6-1c-0.2-0.4-0.2-0.8-0.2-1.2s0.1-0.8,0.2-1.2
		c0.2-0.4,0.4-0.7,0.6-0.9c0.3-0.3,0.6-0.5,1-0.6c0.4-0.1,0.8-0.2,1.2-0.2c0.4,0,0.8,0.1,1.2,0.2c0.4,0.1,0.7,0.4,1,0.6
		c0.3,0.3,0.5,0.6,0.6,0.9C488.5,152.3,488.6,152.7,488.6,153.1z M487.4,153.1c0-0.3,0-0.5-0.1-0.8c-0.1-0.2-0.2-0.5-0.4-0.7
		s-0.4-0.3-0.6-0.4c-0.2-0.1-0.5-0.2-0.8-0.2c-0.3,0-0.6,0.1-0.8,0.2c-0.2,0.1-0.4,0.3-0.6,0.4s-0.3,0.4-0.4,0.7
		c-0.1,0.2-0.1,0.5-0.1,0.8c0,0.3,0,0.5,0.1,0.8c0.1,0.2,0.2,0.5,0.4,0.7s0.4,0.3,0.6,0.5c0.2,0.1,0.5,0.2,0.8,0.2
		c0.3,0,0.6-0.1,0.8-0.2c0.2-0.1,0.4-0.3,0.6-0.5s0.3-0.4,0.4-0.7C487.4,153.7,487.4,153.4,487.4,153.1z"/>
	<path d="M491.4,150.3c0,0.1,0,0.3,0,0.5c0,0.2,0,0.3,0,0.5h0c0.1-0.2,0.2-0.3,0.3-0.4c0.1-0.1,0.3-0.2,0.4-0.3s0.3-0.2,0.5-0.2
		c0.2-0.1,0.4-0.1,0.6-0.1c0.4,0,0.7,0.1,0.9,0.2c0.3,0.1,0.5,0.3,0.7,0.5c0.2,0.2,0.3,0.5,0.4,0.7c0.1,0.3,0.1,0.6,0.1,0.9v3.5
		h-1.1v-3.2c0-0.2,0-0.5-0.1-0.7c0-0.2-0.1-0.4-0.2-0.6c-0.1-0.2-0.2-0.3-0.4-0.4s-0.4-0.1-0.6-0.1c-0.4,0-0.8,0.2-1.1,0.5
		c-0.3,0.3-0.4,0.8-0.4,1.4v3h-1.1v-4.5c0-0.2,0-0.3,0-0.6c0-0.2,0-0.5,0-0.6H491.4z"/>
	<path d="M498.9,155.3c0,0.2-0.1,0.4-0.2,0.6c-0.2,0.2-0.3,0.2-0.6,0.2c-0.2,0-0.4-0.1-0.6-0.2c-0.2-0.2-0.2-0.3-0.2-0.5
		c0-0.2,0.1-0.4,0.2-0.6c0.2-0.2,0.3-0.2,0.6-0.2c0.2,0,0.4,0.1,0.6,0.2C498.9,154.9,498.9,155,498.9,155.3z"/>
	<path d="M504.8,151.7c-0.1-0.2-0.3-0.3-0.5-0.5c-0.2-0.1-0.5-0.2-0.8-0.2c-0.3,0-0.6,0.1-0.8,0.2c-0.2,0.1-0.4,0.3-0.6,0.5
		s-0.3,0.4-0.4,0.7s-0.1,0.5-0.1,0.8c0,0.3,0,0.5,0.1,0.8s0.2,0.5,0.4,0.7c0.2,0.2,0.4,0.3,0.6,0.5c0.2,0.1,0.5,0.2,0.8,0.2
		c0.3,0,0.5-0.1,0.8-0.2c0.2-0.1,0.4-0.3,0.6-0.5l0.8,0.7c-0.2,0.3-0.5,0.5-0.9,0.7c-0.4,0.2-0.8,0.2-1.2,0.2
		c-0.4,0-0.8-0.1-1.2-0.2s-0.7-0.3-1-0.6c-0.3-0.3-0.5-0.6-0.6-0.9s-0.2-0.8-0.2-1.2c0-0.4,0.1-0.9,0.2-1.2c0.2-0.4,0.4-0.7,0.6-0.9
		c0.3-0.3,0.6-0.5,1-0.6c0.4-0.1,0.8-0.2,1.2-0.2c0.4,0,0.8,0.1,1.2,0.2c0.4,0.2,0.7,0.4,0.9,0.7L504.8,151.7z"/>
	<path d="M512.8,153.1c0,0.4-0.1,0.8-0.2,1.2c-0.2,0.4-0.4,0.7-0.6,1s-0.6,0.5-1,0.6c-0.4,0.1-0.8,0.2-1.2,0.2s-0.8-0.1-1.2-0.2
		c-0.4-0.1-0.7-0.4-1-0.6s-0.5-0.6-0.6-1c-0.2-0.4-0.2-0.8-0.2-1.2s0.1-0.8,0.2-1.2c0.2-0.4,0.4-0.7,0.6-0.9c0.3-0.3,0.6-0.5,1-0.6
		c0.4-0.1,0.8-0.2,1.2-0.2s0.8,0.1,1.2,0.2c0.4,0.1,0.7,0.4,1,0.6c0.3,0.3,0.5,0.6,0.6,0.9C512.7,152.3,512.8,152.7,512.8,153.1z
		 M511.6,153.1c0-0.3,0-0.5-0.1-0.8c-0.1-0.2-0.2-0.5-0.4-0.7c-0.2-0.2-0.4-0.3-0.6-0.4s-0.5-0.2-0.8-0.2s-0.6,0.1-0.8,0.2
		s-0.4,0.3-0.6,0.4s-0.3,0.4-0.4,0.7c-0.1,0.2-0.1,0.5-0.1,0.8c0,0.3,0,0.5,0.1,0.8c0.1,0.2,0.2,0.5,0.4,0.7s0.4,0.3,0.6,0.5
		s0.5,0.2,0.8,0.2s0.6-0.1,0.8-0.2s0.4-0.3,0.6-0.5c0.2-0.2,0.3-0.4,0.4-0.7C511.5,153.7,511.6,153.4,511.6,153.1z"/>
	<path d="M516.3,150.5c0.3-0.2,0.7-0.3,1.1-0.3c0.4,0,0.7,0.1,1,0.3c0.3,0.2,0.5,0.5,0.7,0.9c0.2-0.4,0.5-0.6,0.8-0.8
		c0.3-0.2,0.7-0.3,1.1-0.3c0.4,0,0.7,0.1,0.9,0.2c0.3,0.1,0.5,0.3,0.7,0.5c0.2,0.2,0.3,0.5,0.4,0.7c0.1,0.3,0.1,0.6,0.1,0.9v3.5
		h-1.1v-3.2c0-0.2,0-0.5-0.1-0.7c0-0.2-0.1-0.4-0.2-0.6c-0.1-0.2-0.2-0.3-0.4-0.4c-0.2-0.1-0.4-0.1-0.6-0.1c-0.3,0-0.5,0.1-0.7,0.2
		c-0.2,0.1-0.3,0.2-0.5,0.4c-0.1,0.2-0.2,0.4-0.3,0.6c-0.1,0.2-0.1,0.4-0.1,0.7v3.1h-1.1v-3.4c0-0.2,0-0.4-0.1-0.6
		c0-0.2-0.1-0.3-0.2-0.5c-0.1-0.1-0.2-0.2-0.4-0.3c-0.2-0.1-0.3-0.1-0.6-0.1c-0.4,0-0.8,0.2-1,0.5c-0.3,0.3-0.4,0.8-0.4,1.4v3h-1.1
		v-4.5c0-0.2,0-0.3,0-0.6c0-0.2,0-0.5,0-0.6h1.1c0,0.1,0,0.3,0,0.5c0,0.2,0,0.3,0,0.5h0C515.8,150.9,516,150.7,516.3,150.5z"/>
</g>
<g id="Layer_1_00000093158510475728601250000016276404551443850404_">
	<path class="st0" d="M352.8,235.5c-25.9,0-47,21.1-47,47c0,25.9,21.1,47,47,47s47-21.1,47-47C399.8,256.6,378.8,235.5,352.8,235.5z
		 M356.4,250c10.2,7.2,16.8,19.1,16.8,32.5c0,13.4-6.7,25.3-16.8,32.5V250z M349.2,314.6c-9.9-7.2-16.3-18.9-16.3-32.1
		c0-13.1,6.4-24.8,16.3-32.1V314.6z M313.1,282.5c0-19.9,14.7-36.5,33.8-39.3c-12.9,8.5-21.3,22.9-21.3,39.3s8.6,31,21.3,39.3
		C327.7,318.9,313.1,302.5,313.1,282.5z M359.4,321.7c12.8-8.5,21.1-22.9,21.1-39.2c0-16.5-8.5-30.9-21.3-39.3
		c18.9,3.1,33.4,19.5,33.4,39.3C392.6,302.2,378.2,318.6,359.4,321.7z"/>
</g>
<g id="l_00000060016779166891309510000015681763619563725759_">
	<path class="st0" d="M316.2,288.1v-9.3h2.2v7.3h3.6v2C322.1,288.1,316.2,288.1,316.2,288.1z"/>
</g>
<g id="firstA_00000016781749640230883370000011434651298688174984_">
	<path class="st0" d="M343.2,288.1l-0.7-1.8h-3.6l-0.7,1.8h-2.4l3.9-9.3h2.2l3.9,9.3H343.2z M340.7,281.4l-1.2,3.2h2.3L340.7,281.4z
		"/>
</g>
<g id="r_00000024686409410887810610000009930936131329841572_">
	<path class="st0" d="M365.5,288.2l-2.1-3.7h-0.8v3.7h-2.2v-9.5h3.6c0.4,0,0.9,0.1,1.4,0.2c0.4,0.1,0.8,0.3,1.2,0.5
		c0.4,0.2,0.6,0.5,0.8,0.9c0.2,0.4,0.3,0.8,0.3,1.4c0,0.6-0.2,1.2-0.5,1.6c-0.4,0.5-0.8,0.7-1.4,0.9l2.4,4.1H365.5z M365.4,281.7
		c0-0.2-0.1-0.4-0.2-0.5c-0.1-0.2-0.2-0.3-0.4-0.4s-0.3-0.1-0.5-0.2c-0.2,0-0.4,0-0.5,0h-1.2v2.2h1.1c0.2,0,0.4,0,0.5-0.1
		c0.2,0,0.4-0.1,0.5-0.2s0.3-0.2,0.4-0.4C365.4,282.1,365.4,281.9,365.4,281.7z"/>
</g>
<g id="secondA_00000034069399119673383500000017199604388067847066_">
	<path class="st0" d="M388.8,288.1l-0.7-1.8h-3.6l-0.7,1.8h-2.4l3.9-9.3h2.2l3.9,9.3H388.8z M386.4,281.4l-1.2,3.2h2.3L386.4,281.4z
		"/>
</g>
<g>
	<path d="M424.3,288.6l0.1-7h0l-2.6,7H420l-2.5-7h0l0.1,7h-2.3v-9.9h3.4l2.3,6.4h0.1l2.2-6.4h3.5v9.9H424.3z"/>
	<path d="M436.2,288.6l-0.8-1.9h-3.8l-0.7,1.9h-2.6l4.2-9.9h2.3l4.1,9.9H436.2z M433.6,281.3l-1.3,3.4h2.5L433.6,281.3z"/>
	<path d="M446.6,288.6l-3.7-4.6h0v4.6h-2.3v-9.9h2.3v4h0l3.5-4h3l-4.3,4.6l4.5,5.3H446.6z"/>
	<path d="M451.4,288.6v-9.9h6.7v2h-4.4v1.9h4.1v1.9h-4.1v2.1h4.6v2H451.4z"/>
	<path d="M472.8,285.7c0,0.5-0.1,1-0.3,1.4c-0.2,0.4-0.5,0.7-0.9,0.9c-0.4,0.2-0.8,0.4-1.2,0.5c-0.5,0.1-0.9,0.1-1.4,0.1h-3.9v-9.9
		h3.9c0.4,0,0.8,0,1.2,0.1c0.4,0.1,0.8,0.2,1.1,0.4c0.3,0.2,0.6,0.5,0.8,0.8c0.2,0.3,0.3,0.7,0.3,1.2c0,0.6-0.1,1-0.4,1.4
		s-0.7,0.6-1.2,0.8v0c0.3,0,0.5,0.1,0.8,0.3c0.2,0.1,0.5,0.3,0.6,0.5c0.2,0.2,0.3,0.4,0.4,0.7S472.8,285.4,472.8,285.7z
		 M470.1,281.5c0-0.3-0.1-0.6-0.4-0.7c-0.3-0.2-0.6-0.2-1.1-0.2h-1.2v2h1.3c0.4,0,0.8-0.1,1-0.3C470,282.2,470.1,281.9,470.1,281.5z
		 M470.4,285.5c0-0.4-0.2-0.7-0.5-0.9c-0.3-0.2-0.7-0.2-1.2-0.2h-1.3v2.3h1.3c0.2,0,0.4,0,0.6,0c0.2,0,0.4-0.1,0.5-0.2
		c0.2-0.1,0.3-0.2,0.4-0.4C470.4,285.9,470.4,285.7,470.4,285.5z"/>
	<path d="M485.6,283.6c0,0.8-0.1,1.5-0.4,2.1c-0.3,0.6-0.6,1.2-1.1,1.7c-0.5,0.5-1.1,0.8-1.7,1.1c-0.7,0.3-1.4,0.4-2.2,0.4
		s-1.5-0.1-2.1-0.4s-1.2-0.6-1.7-1.1c-0.5-0.5-0.9-1-1.1-1.7c-0.3-0.6-0.4-1.4-0.4-2.1c0-0.8,0.1-1.5,0.4-2.1
		c0.3-0.6,0.6-1.2,1.1-1.6c0.5-0.4,1-0.8,1.7-1c0.7-0.2,1.4-0.4,2.1-0.4s1.5,0.1,2.2,0.4c0.7,0.2,1.2,0.6,1.7,1
		c0.5,0.4,0.9,1,1.1,1.6C485.4,282.1,485.6,282.8,485.6,283.6z M483,283.6c0-0.4-0.1-0.8-0.2-1.2c-0.1-0.4-0.3-0.7-0.6-1
		c-0.2-0.3-0.5-0.5-0.9-0.6c-0.4-0.2-0.7-0.2-1.2-0.2c-0.4,0-0.8,0.1-1.1,0.2s-0.6,0.4-0.9,0.6c-0.3,0.3-0.4,0.6-0.6,1
		c-0.1,0.4-0.2,0.8-0.2,1.2c0,0.4,0.1,0.9,0.2,1.2s0.3,0.7,0.6,1s0.5,0.5,0.9,0.6c0.3,0.2,0.7,0.2,1.1,0.2c0.4,0,0.8-0.1,1.1-0.2
		c0.3-0.2,0.6-0.4,0.9-0.6s0.4-0.6,0.6-1S483,284,483,283.6z"/>
	<path d="M498.3,283.6c0,0.8-0.1,1.5-0.4,2.1c-0.3,0.6-0.6,1.2-1.1,1.7c-0.5,0.5-1.1,0.8-1.7,1.1s-1.4,0.4-2.2,0.4
		c-0.8,0-1.5-0.1-2.2-0.4c-0.7-0.3-1.2-0.6-1.7-1.1c-0.5-0.5-0.9-1-1.1-1.7c-0.3-0.6-0.4-1.4-0.4-2.1c0-0.8,0.1-1.5,0.4-2.1
		c0.3-0.6,0.6-1.2,1.1-1.6c0.5-0.4,1-0.8,1.7-1c0.7-0.2,1.4-0.4,2.2-0.4c0.8,0,1.5,0.1,2.2,0.4c0.7,0.2,1.2,0.6,1.7,1
		c0.5,0.4,0.9,1,1.1,1.6C498.2,282.1,498.3,282.8,498.3,283.6z M495.8,283.6c0-0.4-0.1-0.8-0.2-1.2c-0.1-0.4-0.3-0.7-0.6-1
		c-0.2-0.3-0.5-0.5-0.9-0.6s-0.7-0.2-1.2-0.2c-0.4,0-0.8,0.1-1.1,0.2c-0.3,0.2-0.6,0.4-0.9,0.6c-0.3,0.3-0.4,0.6-0.6,1
		c-0.1,0.4-0.2,0.8-0.2,1.2c0,0.4,0.1,0.9,0.2,1.2c0.1,0.4,0.3,0.7,0.6,1c0.2,0.3,0.5,0.5,0.9,0.6c0.3,0.2,0.7,0.2,1.1,0.2
		c0.4,0,0.8-0.1,1.1-0.2c0.3-0.2,0.6-0.4,0.9-0.6s0.4-0.6,0.6-1C495.7,284.4,495.8,284,495.8,283.6z"/>
	<path d="M506.8,288.6l-3.7-4.6h0v4.6h-2.3v-9.9h2.3v4h0l3.5-4h3l-4.3,4.6l4.5,5.3H506.8z"/>
	<path d="M516.8,281.2c-0.2-0.3-0.5-0.5-0.8-0.6c-0.3-0.2-0.7-0.2-1-0.2c-0.2,0-0.3,0-0.5,0c-0.2,0-0.3,0.1-0.4,0.2
		c-0.1,0.1-0.2,0.2-0.3,0.3c-0.1,0.1-0.1,0.3-0.1,0.5c0,0.2,0,0.3,0.1,0.4c0.1,0.1,0.2,0.2,0.3,0.3s0.3,0.2,0.5,0.2
		c0.2,0.1,0.4,0.1,0.6,0.2c0.3,0.1,0.7,0.2,1,0.4s0.7,0.3,1,0.5c0.3,0.2,0.5,0.5,0.7,0.8c0.2,0.3,0.3,0.7,0.3,1.2
		c0,0.6-0.1,1.1-0.3,1.5s-0.5,0.8-0.8,1c-0.4,0.3-0.8,0.5-1.2,0.6c-0.5,0.1-0.9,0.2-1.4,0.2c-0.7,0-1.4-0.1-2.1-0.4
		c-0.7-0.2-1.2-0.6-1.7-1.1l1.6-1.6c0.2,0.3,0.6,0.5,1,0.7c0.4,0.2,0.8,0.3,1.2,0.3c0.2,0,0.4,0,0.5-0.1c0.2,0,0.3-0.1,0.4-0.2
		c0.1-0.1,0.2-0.2,0.3-0.3c0.1-0.1,0.1-0.3,0.1-0.5c0-0.2,0-0.3-0.1-0.5s-0.2-0.2-0.4-0.4c-0.2-0.1-0.4-0.2-0.6-0.3
		s-0.5-0.2-0.9-0.3c-0.3-0.1-0.6-0.2-0.9-0.4c-0.3-0.1-0.6-0.3-0.8-0.5c-0.2-0.2-0.4-0.5-0.6-0.8c-0.1-0.3-0.2-0.7-0.2-1.1
		c0-0.5,0.1-1,0.3-1.4c0.2-0.4,0.5-0.7,0.9-1c0.4-0.3,0.8-0.4,1.2-0.6c0.5-0.1,0.9-0.2,1.4-0.2c0.6,0,1.1,0.1,1.7,0.3
		c0.6,0.2,1.1,0.5,1.5,0.9L516.8,281.2z"/>
	<path d="M416.4,303h-1.1v-9.1h1.1V303z"/>
	<path d="M422.1,299.3c0-0.4-0.1-0.7-0.4-0.9c-0.3-0.2-0.6-0.3-1-0.3c-0.3,0-0.6,0.1-0.9,0.2c-0.3,0.1-0.5,0.3-0.7,0.5l-0.6-0.7
		c0.3-0.3,0.6-0.5,1-0.6c0.4-0.2,0.8-0.2,1.3-0.2c0.4,0,0.8,0.1,1.1,0.2c0.3,0.1,0.5,0.3,0.7,0.5c0.2,0.2,0.3,0.4,0.4,0.7
		s0.1,0.6,0.1,0.9v2.5c0,0.2,0,0.4,0,0.6s0,0.4,0.1,0.5h-1c-0.1-0.3-0.1-0.5-0.1-0.8h0c-0.2,0.3-0.5,0.5-0.8,0.7
		c-0.3,0.2-0.7,0.3-1.1,0.3c-0.2,0-0.5,0-0.7-0.1c-0.2-0.1-0.5-0.2-0.7-0.3c-0.2-0.1-0.4-0.3-0.5-0.5s-0.2-0.5-0.2-0.8
		c0-0.4,0.1-0.8,0.3-1c0.2-0.3,0.5-0.4,0.9-0.6c0.4-0.1,0.8-0.2,1.3-0.3c0.5,0,0.9-0.1,1.4-0.1V299.3z M421.8,300.3
		c-0.3,0-0.6,0-0.9,0c-0.3,0-0.6,0.1-0.8,0.1c-0.2,0.1-0.4,0.2-0.6,0.3c-0.2,0.1-0.2,0.3-0.2,0.6c0,0.2,0,0.3,0.1,0.4
		c0.1,0.1,0.2,0.2,0.3,0.3c0.1,0.1,0.2,0.1,0.4,0.1c0.1,0,0.3,0,0.4,0c0.5,0,0.9-0.2,1.2-0.5s0.4-0.7,0.4-1.2v-0.3H421.8z"/>
	<path d="M425.3,297.9c0-0.2,0-0.5,0-0.6h1.1c0,0.1,0,0.3,0,0.5s0,0.3,0,0.5h0c0.2-0.3,0.4-0.6,0.7-0.8c0.3-0.2,0.7-0.3,1-0.3
		c0.2,0,0.3,0,0.4,0l0,1c-0.2,0-0.3-0.1-0.5-0.1c-0.3,0-0.5,0.1-0.7,0.2c-0.2,0.1-0.4,0.2-0.5,0.4c-0.1,0.2-0.2,0.4-0.3,0.6
		c-0.1,0.2-0.1,0.5-0.1,0.7v3h-1.1v-4.5C425.3,298.4,425.3,298.2,425.3,297.9z"/>
	<path d="M433.2,299.3c0-0.4-0.1-0.7-0.4-0.9c-0.3-0.2-0.6-0.3-1-0.3c-0.3,0-0.6,0.1-0.9,0.2c-0.3,0.1-0.5,0.3-0.7,0.5l-0.6-0.7
		c0.3-0.3,0.6-0.5,1-0.6c0.4-0.2,0.8-0.2,1.3-0.2c0.4,0,0.8,0.1,1.1,0.2c0.3,0.1,0.5,0.3,0.7,0.5c0.2,0.2,0.3,0.4,0.4,0.7
		s0.1,0.6,0.1,0.9v2.5c0,0.2,0,0.4,0,0.6s0,0.4,0.1,0.5h-1c-0.1-0.3-0.1-0.5-0.1-0.8h0c-0.2,0.3-0.5,0.5-0.8,0.7
		c-0.3,0.2-0.7,0.3-1.1,0.3c-0.2,0-0.5,0-0.7-0.1c-0.2-0.1-0.5-0.2-0.7-0.3c-0.2-0.1-0.4-0.3-0.5-0.5s-0.2-0.5-0.2-0.8
		c0-0.4,0.1-0.8,0.3-1c0.2-0.3,0.5-0.4,0.9-0.6c0.4-0.1,0.8-0.2,1.3-0.3c0.5,0,0.9-0.1,1.4-0.1V299.3z M432.9,300.3
		c-0.3,0-0.6,0-0.9,0c-0.3,0-0.6,0.1-0.8,0.1c-0.2,0.1-0.4,0.2-0.6,0.3c-0.2,0.1-0.2,0.3-0.2,0.6c0,0.2,0,0.3,0.1,0.4
		c0.1,0.1,0.2,0.2,0.3,0.3c0.1,0.1,0.2,0.1,0.4,0.1c0.1,0,0.3,0,0.4,0c0.5,0,0.9-0.2,1.2-0.5s0.4-0.7,0.4-1.2v-0.3H432.9z"/>
	<path d="M437.5,298.2c0.1-0.3,0.4-0.5,0.7-0.7c0.3-0.2,0.7-0.3,1.1-0.3c0.4,0,0.7,0.1,0.9,0.2c0.3,0.1,0.5,0.3,0.7,0.5
		c0.2,0.2,0.3,0.5,0.4,0.7s0.1,0.6,0.1,0.9v3.5h-1.1v-3.2c0-0.2,0-0.5-0.1-0.7c0-0.2-0.1-0.4-0.2-0.6c-0.1-0.2-0.2-0.3-0.4-0.4
		s-0.4-0.1-0.6-0.1c-0.4,0-0.8,0.2-1.1,0.5c-0.3,0.3-0.4,0.8-0.4,1.4v3h-1.1v-9.1h1.1L437.5,298.2L437.5,298.2z"/>
	<path d="M448.9,300.1c0,0.1,0,0.1,0,0.2c0,0.1,0,0.1,0,0.2h-4.5c0,0.2,0.1,0.5,0.2,0.7s0.2,0.4,0.4,0.5c0.2,0.2,0.4,0.3,0.6,0.4
		c0.2,0.1,0.5,0.1,0.7,0.1c0.4,0,0.7-0.1,1-0.3c0.3-0.2,0.5-0.4,0.7-0.6l0.8,0.6c-0.3,0.4-0.7,0.7-1.1,0.9s-0.9,0.3-1.4,0.3
		c-0.4,0-0.8-0.1-1.2-0.2c-0.4-0.1-0.7-0.3-0.9-0.6s-0.5-0.6-0.6-0.9c-0.2-0.4-0.2-0.8-0.2-1.2c0-0.4,0.1-0.8,0.2-1.2
		c0.1-0.4,0.4-0.7,0.6-1c0.3-0.3,0.6-0.5,0.9-0.6c0.4-0.1,0.8-0.2,1.2-0.2c0.4,0,0.8,0.1,1.1,0.2c0.3,0.1,0.6,0.3,0.9,0.6
		c0.2,0.3,0.4,0.6,0.5,0.9C448.8,299.2,448.9,299.6,448.9,300.1z M447.7,299.6c0-0.2,0-0.4-0.1-0.6c-0.1-0.2-0.2-0.4-0.3-0.5
		c-0.1-0.1-0.3-0.3-0.5-0.3c-0.2-0.1-0.4-0.1-0.7-0.1c-0.2,0-0.5,0-0.7,0.1c-0.2,0.1-0.4,0.2-0.6,0.3c-0.2,0.1-0.3,0.3-0.4,0.5
		c-0.1,0.2-0.2,0.4-0.2,0.6H447.7z"/>
	<path d="M451.7,297.3c0,0.1,0,0.3,0,0.5c0,0.2,0,0.3,0,0.5h0c0.1-0.2,0.2-0.3,0.3-0.4s0.3-0.2,0.4-0.3s0.3-0.2,0.5-0.2
		c0.2-0.1,0.4-0.1,0.6-0.1c0.4,0,0.7,0.1,0.9,0.2s0.5,0.3,0.7,0.5c0.2,0.2,0.3,0.5,0.4,0.7s0.1,0.6,0.1,0.9v3.5h-1.1v-3.2
		c0-0.2,0-0.5-0.1-0.7c0-0.2-0.1-0.4-0.2-0.6c-0.1-0.2-0.2-0.3-0.4-0.4c-0.2-0.1-0.4-0.1-0.6-0.1c-0.4,0-0.8,0.2-1.1,0.5
		c-0.3,0.3-0.4,0.8-0.4,1.4v3h-1.1v-4.5c0-0.2,0-0.3,0-0.6s0-0.5,0-0.6H451.7z"/>
	<path d="M462.4,302.1c-0.2,0.3-0.5,0.6-0.9,0.8c-0.4,0.2-0.8,0.3-1.2,0.3c-0.4,0-0.8-0.1-1.2-0.2s-0.7-0.4-0.9-0.6
		c-0.2-0.3-0.4-0.6-0.6-1c-0.1-0.4-0.2-0.8-0.2-1.2s0.1-0.8,0.2-1.2c0.1-0.4,0.3-0.7,0.6-1s0.6-0.5,0.9-0.6c0.4-0.2,0.7-0.2,1.2-0.2
		c0.5,0,0.9,0.1,1.2,0.3c0.3,0.2,0.6,0.4,0.8,0.7h0v-4.2h1.1v9.1h-1.1L462.4,302.1L462.4,302.1z M458.6,300.1c0,0.3,0,0.5,0.1,0.8
		s0.2,0.5,0.4,0.7c0.2,0.2,0.4,0.3,0.6,0.5c0.2,0.1,0.5,0.2,0.8,0.2c0.3,0,0.5-0.1,0.8-0.2s0.4-0.3,0.6-0.4s0.3-0.4,0.4-0.7
		c0.1-0.2,0.1-0.5,0.1-0.8c0-0.3,0-0.5-0.1-0.8s-0.2-0.5-0.4-0.7c-0.2-0.2-0.4-0.3-0.6-0.5c-0.2-0.1-0.5-0.2-0.8-0.2
		c-0.3,0-0.6,0.1-0.8,0.2c-0.2,0.1-0.4,0.3-0.6,0.5c-0.2,0.2-0.3,0.4-0.4,0.7S458.6,299.9,458.6,300.1z"/>
	<path d="M471,300.1c0,0.1,0,0.1,0,0.2c0,0.1,0,0.1,0,0.2h-4.5c0,0.2,0.1,0.5,0.2,0.7s0.2,0.4,0.4,0.5c0.2,0.2,0.4,0.3,0.6,0.4
		c0.2,0.1,0.5,0.1,0.7,0.1c0.4,0,0.7-0.1,1-0.3c0.3-0.2,0.5-0.4,0.7-0.6l0.8,0.6c-0.3,0.4-0.7,0.7-1.1,0.9s-0.9,0.3-1.4,0.3
		c-0.4,0-0.8-0.1-1.2-0.2c-0.4-0.1-0.7-0.3-0.9-0.6s-0.5-0.6-0.6-0.9c-0.2-0.4-0.2-0.8-0.2-1.2c0-0.4,0.1-0.8,0.2-1.2
		c0.1-0.4,0.4-0.7,0.6-1c0.3-0.3,0.6-0.5,0.9-0.6c0.4-0.1,0.8-0.2,1.2-0.2c0.4,0,0.8,0.1,1.1,0.2c0.3,0.1,0.6,0.3,0.9,0.6
		c0.2,0.3,0.4,0.6,0.5,0.9C470.9,299.2,471,299.6,471,300.1z M469.8,299.6c0-0.2,0-0.4-0.1-0.6c-0.1-0.2-0.2-0.4-0.3-0.5
		c-0.1-0.1-0.3-0.3-0.5-0.3c-0.2-0.1-0.4-0.1-0.7-0.1c-0.2,0-0.5,0-0.7,0.1c-0.2,0.1-0.4,0.2-0.6,0.3c-0.2,0.1-0.3,0.3-0.4,0.5
		c-0.1,0.2-0.2,0.4-0.2,0.6H469.8z"/>
	<path d="M472.7,297.9c0-0.2,0-0.5,0-0.6h1.1c0,0.1,0,0.3,0,0.5s0,0.3,0,0.5h0c0.2-0.3,0.4-0.6,0.7-0.8c0.3-0.2,0.7-0.3,1-0.3
		c0.2,0,0.3,0,0.4,0l0,1c-0.2,0-0.3-0.1-0.5-0.1c-0.3,0-0.5,0.1-0.7,0.2c-0.2,0.1-0.4,0.2-0.5,0.4c-0.1,0.2-0.2,0.4-0.3,0.6
		c-0.1,0.2-0.1,0.5-0.1,0.7v3h-1.1v-4.5C472.7,298.4,472.7,298.2,472.7,297.9z"/>
	<path d="M480.4,298.7c-0.1-0.2-0.3-0.4-0.5-0.5c-0.2-0.1-0.5-0.2-0.8-0.2c-0.1,0-0.3,0-0.4,0c-0.1,0-0.2,0.1-0.3,0.1
		c-0.1,0.1-0.2,0.1-0.2,0.2c-0.1,0.1-0.1,0.2-0.1,0.3c0,0.2,0.1,0.4,0.3,0.5c0.2,0.1,0.5,0.2,1,0.3c0.3,0.1,0.5,0.1,0.8,0.2
		s0.4,0.2,0.6,0.3c0.2,0.1,0.3,0.3,0.4,0.5s0.1,0.4,0.1,0.6c0,0.3-0.1,0.6-0.2,0.9s-0.3,0.4-0.5,0.6c-0.2,0.1-0.5,0.3-0.7,0.3
		s-0.6,0.1-0.8,0.1c-0.4,0-0.9-0.1-1.3-0.3s-0.8-0.4-1-0.8l0.8-0.7c0.2,0.2,0.4,0.4,0.6,0.6c0.3,0.2,0.6,0.2,0.9,0.2
		c0.1,0,0.3,0,0.4,0c0.1,0,0.3-0.1,0.4-0.1s0.2-0.1,0.3-0.3s0.1-0.2,0.1-0.4c0-0.3-0.1-0.5-0.4-0.6c-0.3-0.1-0.6-0.2-1.1-0.4
		c-0.2,0-0.4-0.1-0.6-0.2c-0.2-0.1-0.4-0.2-0.5-0.3c-0.2-0.1-0.3-0.3-0.4-0.5c-0.1-0.2-0.2-0.4-0.2-0.7c0-0.3,0.1-0.6,0.2-0.8
		c0.1-0.2,0.3-0.4,0.5-0.5c0.2-0.1,0.4-0.2,0.7-0.3s0.5-0.1,0.8-0.1c0.4,0,0.8,0.1,1.2,0.2s0.7,0.4,0.9,0.7L480.4,298.7z"/>
	<path d="M488.6,300.1c0,0.4-0.1,0.8-0.2,1.2c-0.2,0.4-0.4,0.7-0.6,1c-0.3,0.3-0.6,0.5-1,0.6s-0.8,0.2-1.2,0.2
		c-0.4,0-0.8-0.1-1.2-0.2c-0.4-0.1-0.7-0.4-1-0.6c-0.3-0.3-0.5-0.6-0.6-1c-0.2-0.4-0.2-0.8-0.2-1.2s0.1-0.8,0.2-1.2
		c0.2-0.4,0.4-0.7,0.6-0.9c0.3-0.3,0.6-0.5,1-0.6c0.4-0.1,0.8-0.2,1.2-0.2c0.4,0,0.8,0.1,1.2,0.2c0.4,0.1,0.7,0.4,1,0.6
		c0.3,0.3,0.5,0.6,0.6,0.9C488.5,299.3,488.6,299.7,488.6,300.1z M487.4,300.1c0-0.3,0-0.5-0.1-0.8c-0.1-0.2-0.2-0.5-0.4-0.7
		s-0.4-0.3-0.6-0.4c-0.2-0.1-0.5-0.2-0.8-0.2c-0.3,0-0.6,0.1-0.8,0.2c-0.2,0.1-0.4,0.3-0.6,0.4s-0.3,0.4-0.4,0.7
		c-0.1,0.2-0.1,0.5-0.1,0.8c0,0.3,0,0.5,0.1,0.8c0.1,0.2,0.2,0.5,0.4,0.7s0.4,0.3,0.6,0.5c0.2,0.1,0.5,0.2,0.8,0.2
		c0.3,0,0.6-0.1,0.8-0.2c0.2-0.1,0.4-0.3,0.6-0.5s0.3-0.4,0.4-0.7C487.4,300.7,487.4,300.4,487.4,300.1z"/>
	<path d="M491.4,297.3c0,0.1,0,0.3,0,0.5c0,0.2,0,0.3,0,0.5h0c0.1-0.2,0.2-0.3,0.3-0.4c0.1-0.1,0.3-0.2,0.4-0.3s0.3-0.2,0.5-0.2
		c0.2-0.1,0.4-0.1,0.6-0.1c0.4,0,0.7,0.1,0.9,0.2c0.3,0.1,0.5,0.3,0.7,0.5c0.2,0.2,0.3,0.5,0.4,0.7s0.1,0.6,0.1,0.9v3.5h-1.1v-3.2
		c0-0.2,0-0.5-0.1-0.7c0-0.2-0.1-0.4-0.2-0.6c-0.1-0.2-0.2-0.3-0.4-0.4c-0.2-0.1-0.4-0.1-0.6-0.1c-0.4,0-0.8,0.2-1.1,0.5
		s-0.4,0.8-0.4,1.4v3h-1.1v-4.5c0-0.2,0-0.3,0-0.6s0-0.5,0-0.6H491.4z"/>
	<path d="M498.9,302.3c0,0.2-0.1,0.4-0.2,0.6c-0.2,0.2-0.3,0.2-0.6,0.2c-0.2,0-0.4-0.1-0.6-0.2c-0.2-0.2-0.2-0.3-0.2-0.5
		c0-0.2,0.1-0.4,0.2-0.6c0.2-0.2,0.3-0.2,0.6-0.2c0.2,0,0.4,0.1,0.6,0.2C498.9,301.9,498.9,302,498.9,302.3z"/>
	<path d="M504.8,298.7c-0.1-0.2-0.3-0.3-0.5-0.5c-0.2-0.1-0.5-0.2-0.8-0.2c-0.3,0-0.6,0.1-0.8,0.2c-0.2,0.1-0.4,0.3-0.6,0.5
		s-0.3,0.4-0.4,0.7s-0.1,0.5-0.1,0.8c0,0.3,0,0.5,0.1,0.8s0.2,0.5,0.4,0.7s0.4,0.3,0.6,0.4c0.2,0.1,0.5,0.2,0.8,0.2
		c0.3,0,0.5-0.1,0.8-0.2c0.2-0.1,0.4-0.3,0.6-0.5l0.8,0.7c-0.2,0.3-0.5,0.5-0.9,0.7c-0.4,0.2-0.8,0.2-1.2,0.2
		c-0.4,0-0.8-0.1-1.2-0.2s-0.7-0.3-1-0.6s-0.5-0.6-0.6-0.9s-0.2-0.8-0.2-1.2c0-0.4,0.1-0.9,0.2-1.2c0.2-0.4,0.4-0.7,0.6-0.9
		c0.3-0.3,0.6-0.5,1-0.6c0.4-0.1,0.8-0.2,1.2-0.2c0.4,0,0.8,0.1,1.2,0.2c0.4,0.2,0.7,0.4,0.9,0.7L504.8,298.7z"/>
	<path d="M512.8,300.1c0,0.4-0.1,0.8-0.2,1.2c-0.2,0.4-0.4,0.7-0.6,1s-0.6,0.5-1,0.6c-0.4,0.1-0.8,0.2-1.2,0.2s-0.8-0.1-1.2-0.2
		c-0.4-0.1-0.7-0.4-1-0.6s-0.5-0.6-0.6-1c-0.2-0.4-0.2-0.8-0.2-1.2s0.1-0.8,0.2-1.2c0.2-0.4,0.4-0.7,0.6-0.9c0.3-0.3,0.6-0.5,1-0.6
		c0.4-0.1,0.8-0.2,1.2-0.2s0.8,0.1,1.2,0.2c0.4,0.1,0.7,0.4,1,0.6c0.3,0.3,0.5,0.6,0.6,0.9C512.7,299.3,512.8,299.7,512.8,300.1z
		 M511.6,300.1c0-0.3,0-0.5-0.1-0.8c-0.1-0.2-0.2-0.5-0.4-0.7c-0.2-0.2-0.4-0.3-0.6-0.4c-0.2-0.1-0.5-0.2-0.8-0.2s-0.6,0.1-0.8,0.2
		c-0.2,0.1-0.4,0.3-0.6,0.4s-0.3,0.4-0.4,0.7c-0.1,0.2-0.1,0.5-0.1,0.8c0,0.3,0,0.5,0.1,0.8c0.1,0.2,0.2,0.5,0.4,0.7
		s0.4,0.3,0.6,0.5s0.5,0.2,0.8,0.2s0.6-0.1,0.8-0.2s0.4-0.3,0.6-0.5c0.2-0.2,0.3-0.4,0.4-0.7C511.5,300.7,511.6,300.4,511.6,300.1z"
		/>
	<path d="M516.3,297.5c0.3-0.2,0.7-0.3,1.1-0.3c0.4,0,0.7,0.1,1,0.3s0.5,0.5,0.7,0.9c0.2-0.4,0.5-0.6,0.8-0.8
		c0.3-0.2,0.7-0.3,1.1-0.3c0.4,0,0.7,0.1,0.9,0.2s0.5,0.3,0.7,0.5c0.2,0.2,0.3,0.5,0.4,0.7s0.1,0.6,0.1,0.9v3.5h-1.1v-3.2
		c0-0.2,0-0.5-0.1-0.7c0-0.2-0.1-0.4-0.2-0.6c-0.1-0.2-0.2-0.3-0.4-0.4c-0.2-0.1-0.4-0.1-0.6-0.1c-0.3,0-0.5,0.1-0.7,0.2
		c-0.2,0.1-0.3,0.2-0.5,0.4c-0.1,0.2-0.2,0.4-0.3,0.6c-0.1,0.2-0.1,0.4-0.1,0.7v3.1h-1.1v-3.4c0-0.2,0-0.4-0.1-0.6
		c0-0.2-0.1-0.3-0.2-0.5c-0.1-0.1-0.2-0.2-0.4-0.3c-0.2-0.1-0.3-0.1-0.6-0.1c-0.4,0-0.8,0.2-1,0.5c-0.3,0.3-0.4,0.8-0.4,1.4v3h-1.1
		v-4.5c0-0.2,0-0.3,0-0.6s0-0.5,0-0.6h1.1c0,0.1,0,0.3,0,0.5c0,0.2,0,0.3,0,0.5h0C515.8,297.9,516,297.7,516.3,297.5z"/>
</g>
<line class="st2" x1="36.5" y1="26.3" x2="36.5" y2="49.2"/>
<line class="st2" x1="287.2" y1="26.3" x2="287.2" y2="49.2"/>
<line class="st2" x1="539.6" y1="30.9" x2="539.6" y2="53.7"/>
<line class="st2" x1="568.7" y1="66" x2="545.9" y2="66"/>
<line class="st2" x1="568.1" y1="210" x2="545.2" y2="210"/>
<line class="st2" x1="570.5" y1="354" x2="547.7" y2="354"/>
<line class="st2" x1="539.6" y1="380.7" x2="539.6" y2="357.8"/>
<line class="st2" x1="287.2" y1="382.9" x2="287.2" y2="360"/>
<line class="st2" x1="36.5" y1="381.4" x2="36.5" y2="358.5"/>
<line class="st2" x1="5.7" y1="354" x2="28.6" y2="354"/>
<line class="st2" x1="30.3" y1="210" x2="7.4" y2="210"/>
<line class="st2" x1="29.7" y1="66" x2="6.9" y2="66"/>
</svg>
